<?xml version="1.0" encoding="UTF-8" standalone="no"?>
<svg
   xmlns:dc="http://purl.org/dc/elements/1.1/"
   xmlns:cc="http://creativecommons.org/ns#"
   xmlns:rdf="http://www.w3.org/1999/02/22-rdf-syntax-ns#"
   xmlns:svg="http://www.w3.org/2000/svg"
   xmlns="http://www.w3.org/2000/svg"
   viewBox="0 0 377.94666 377.94666"
   height="377.94666"
   width="377.94666"
   xml:space="preserve"
   id="svg3713"
   version="1.1"><metadata
     id="metadata3719"><rdf:RDF><cc:Work
         rdf:about=""><dc:format>image/svg+xml</dc:format><dc:type
           rdf:resource="http://purl.org/dc/dcmitype/StillImage" /><dc:title></dc:title></cc:Work></rdf:RDF></metadata><defs
     id="defs3717"><clipPath
       id="clipPath3729"
       clipPathUnits="userSpaceOnUse"><path
         id="path3727"
         d="M 0,283.46 H 283.46 V 0 H 0 Z" /></clipPath><clipPath
       id="clipPath3761"
       clipPathUnits="userSpaceOnUse"><path
         id="path3759"
         d="M 0,283.46 H 283.46 V 0 H 0 Z" /></clipPath><clipPath
       id="clipPath3789"
       clipPathUnits="userSpaceOnUse"><path
         id="path3787"
         d="M 0,283.46 H 283.46 V 0 H 0 Z" /></clipPath><clipPath
       id="clipPath3837"
       clipPathUnits="userSpaceOnUse"><path
         id="path3835"
         d="M 0,283.46 H 283.46 V 0 H 0 Z" /></clipPath><clipPath
       id="clipPath3861"
       clipPathUnits="userSpaceOnUse"><path
         id="path3859"
         d="M 0,283.46 H 283.46 V 0 H 0 Z" /></clipPath></defs><g
     transform="matrix(1.3333333,0,0,-1.3333333,0,377.94667)"
     id="g3721"><g
       id="g3723"><g
         clip-path="url(#clipPath3729)"
         id="g3725"><g
           transform="translate(283.46,141.73)"
           id="g3731"><path
             id="path3733"
             style="fill:#131212;fill-opacity:1;fill-rule:nonzero;stroke:none"
             d="m 0,0 c 0,-78.275 -63.455,-141.73 -141.73,-141.73 -78.275,0 -141.73,63.455 -141.73,141.73 0,78.275 63.455,141.73 141.73,141.73 C -63.455,141.73 0,78.275 0,0" /></g><g
           transform="translate(277.5596,141.73)"
           id="g3735"><path
             id="path3737"
             style="fill:#d3a317;fill-opacity:1;fill-rule:nonzero;stroke:none"
             d="m 0,0 c 0,75.017 -60.813,135.83 -135.83,135.83 -75.016,0 -135.829,-60.813 -135.829,-135.83 0,-75.017 60.813,-135.83 135.829,-135.83 C -60.813,-135.83 0,-75.017 0,0" /></g><g
           transform="translate(273.8525,141.9952)"
           id="g3739"><path
             id="path3741"
             style="fill:#040606;fill-opacity:1;fill-rule:nonzero;stroke:none"
             d="m 0,0 c 0,72.97 -59.153,132.123 -132.123,132.123 -72.969,0 -132.122,-59.153 -132.122,-132.123 0,-72.969 59.153,-132.122 132.122,-132.122 C -59.153,-132.122 0,-72.969 0,0" /></g></g></g><text
       id="text3745"
       style="font-variant:normal;font-weight:bold;font-stretch:normal;font-size:46.75863266px;font-family:Calibri;-inkscape-font-specification:Calibri-Bold;writing-mode:lr-tb;fill:#d3a317;fill-opacity:1;fill-rule:nonzero;stroke:none"
       transform="matrix(0.51764771,0.85559386,0.85559386,-0.51764771,54.8133,180.2571)"><tspan
         id="tspan3743"
         y="0"
         x="0">С</tspan></text>
<text
       id="text3749"
       style="font-variant:normal;font-weight:bold;font-stretch:normal;font-size:46.75866318px;font-family:Calibri;-inkscape-font-specification:Calibri-Bold;writing-mode:lr-tb;fill:#d3a317;fill-opacity:1;fill-rule:nonzero;stroke:none"
       transform="matrix(0.72157538,0.69233588,0.69233588,-0.72157538,66.2773,200.1288)"><tspan
         id="tspan3747"
         y="0"
         x="0">А</tspan></text>
<text
       id="text3753"
       style="font-variant:normal;font-weight:bold;font-stretch:normal;font-size:46.75862885px;font-family:Calibri;-inkscape-font-specification:Calibri-Bold;writing-mode:lr-tb;fill:#d3a317;fill-opacity:1;fill-rule:nonzero;stroke:none"
       transform="matrix(0.88610167,0.46349091,0.46349091,-0.88610167,84.0203,218.0781)"><tspan
         id="tspan3751"
         y="0"
         x="0">О</tspan></text>
<g
       id="g3755"><g
         clip-path="url(#clipPath3761)"
         id="g3757"><text
           id="text3765"
           style="font-variant:normal;font-weight:bold;font-stretch:normal;font-size:46.75868607px;font-family:Calibri;-inkscape-font-specification:Calibri-Bold;writing-mode:lr-tb;fill:#d3a317;fill-opacity:1;fill-rule:nonzero;stroke:none"
           transform="matrix(0.99638604,0.08494037,0.08494037,-0.99638604,119.6998,234.638)"><tspan
             id="tspan3763"
             y="0"
             x="0">А</tspan></text>
<text
           id="text3769"
           style="font-variant:normal;font-weight:bold;font-stretch:normal;font-size:46.75865936px;font-family:Calibri;-inkscape-font-specification:Calibri-Bold;writing-mode:lr-tb;fill:#d3a317;fill-opacity:1;fill-rule:nonzero;stroke:none"
           transform="matrix(0.97867644,-0.20540794,-0.20540794,-0.97867644,145.9388,237.3455)"><tspan
             id="tspan3767"
             y="0"
             x="0">Ц</tspan></text>
</g></g><text
       id="text3773"
       style="font-variant:normal;font-weight:bold;font-stretch:normal;font-size:46.75869751px;font-family:Calibri;-inkscape-font-specification:Calibri-Bold;writing-mode:lr-tb;fill:#d3a317;fill-opacity:1;fill-rule:nonzero;stroke:none"
       transform="matrix(0.89570287,-0.4446531,-0.4446531,-0.89570287,173.2895,231.4562)"><tspan
         id="tspan3771"
         y="0"
         x="0">Т</tspan></text>
<text
       id="text3777"
       style="font-variant:normal;font-weight:bold;font-stretch:normal;font-size:46.7586441px;font-family:Calibri;-inkscape-font-specification:Calibri-Bold;writing-mode:lr-tb;fill:#d3a317;fill-opacity:1;fill-rule:nonzero;stroke:none"
       transform="matrix(0.77334148,-0.63398971,-0.63398971,-0.77334148,192.6685,222.0264)"><tspan
         id="tspan3775"
         y="0"
         x="0">Е</tspan></text>
<text
       id="text3781"
       style="font-variant:normal;font-weight:bold;font-stretch:normal;font-size:46.75865555px;font-family:Calibri;-inkscape-font-specification:Calibri-Bold;writing-mode:lr-tb;fill:#d3a317;fill-opacity:1;fill-rule:nonzero;stroke:none"
       transform="matrix(0.5982058,-0.80134251,-0.80134251,-0.5982058,209.2758,208.9492)"><tspan
         id="tspan3779"
         y="0"
         x="0">К</tspan></text>
<g
       id="g3783"><g
         clip-path="url(#clipPath3789)"
         id="g3785"><g
           transform="translate(124.8604,182.229)"
           id="g3791"><path
             id="path3793"
             style="fill:#d3a317;fill-opacity:1;fill-rule:nonzero;stroke:none"
             d="M 0,0 C 1.892,0 3.425,1.548 3.425,3.458 3.425,5.367 1.892,6.915 0,6.915 -1.892,6.915 -3.425,5.367 -3.425,3.458 -3.425,1.548 -1.892,0 0,0" /></g><g
           transform="translate(126.7744,146.167)"
           id="g3795"><path
             id="path3797"
             style="fill:#d3a317;fill-opacity:1;fill-rule:nonzero;stroke:none"
             d="m 0,0 c -3.176,0 -8.5,0.686 -8.5,5.27 0,4.765 6.435,5.277 9.2,5.277 3.794,0 7.8,-3.096 7.8,-6.018 C 8.5,1.938 4.013,0 0,0 m 11.313,4.529 c 0,4.467 -5.255,8.857 -10.613,8.857 -7.519,0 -12.013,-3.033 -12.013,-8.116 0,-5.152 4.123,-8.11 11.313,-8.11 5.557,0 11.313,2.757 11.313,7.369" /></g><g
           transform="translate(126.7744,149.2759)"
           id="g3799"><path
             id="path3801"
             style="fill:#d3a317;fill-opacity:1;fill-rule:nonzero;stroke:none"
             d="m 0,0 c -1.894,0 -4.144,0.437 -4.144,2.5 0,2.265 3.143,2.507 4.494,2.507 1.955,0 3.794,-1.62 3.794,-2.881 C 4.144,0.907 1.955,0 0,0 m 0.35,6.78 c -3.911,0 -6.25,-1.599 -6.25,-4.28 0,-2.714 2.147,-4.272 5.9,-4.272 2.902,0 5.9,1.46 5.9,3.898 0,2.39 -2.696,4.654 -5.55,4.654" /></g><g
           transform="translate(160.5127,182.229)"
           id="g3803"><path
             id="path3805"
             style="fill:#d3a317;fill-opacity:1;fill-rule:nonzero;stroke:none"
             d="M 0,0 C 1.892,0 3.425,1.548 3.425,3.458 3.425,5.367 1.892,6.915 0,6.915 -1.892,6.915 -3.426,5.367 -3.426,3.458 -3.426,1.548 -1.892,0 0,0" /></g><g
           transform="translate(150.0996,150.6958)"
           id="g3807"><path
             id="path3809"
             style="fill:#d3a317;fill-opacity:1;fill-rule:nonzero;stroke:none"
             d="m 0,0 c 0,2.922 4.007,6.018 7.8,6.018 2.764,0 9.2,-0.512 9.2,-5.277 0,-4.584 -5.323,-5.27 -8.5,-5.27 C 4.486,-4.529 0,-2.59 0,0 M 19.812,0.741 C 19.812,5.824 15.319,8.857 7.8,8.857 2.442,8.857 -2.813,4.467 -2.813,0 c 0,-4.612 5.756,-7.369 11.313,-7.369 7.189,0 11.312,2.958 11.312,8.11" /></g><g
           transform="translate(154.4561,151.4024)"
           id="g3811"><path
             id="path3813"
             style="fill:#d3a317;fill-opacity:1;fill-rule:nonzero;stroke:none"
             d="m 0,0 c 0,1.26 1.839,2.881 3.787,2.881 1.352,0 4.5,-0.242 4.5,-2.507 0,-2.064 -2.25,-2.5 -4.143,-2.5 C 2.188,-2.126 0,-1.219 0,0 m 10.044,0.374 c 0,2.68 -2.34,4.28 -6.257,4.28 -2.848,0 -5.544,-2.265 -5.544,-4.654 0,-2.438 2.998,-3.899 5.901,-3.899 3.752,0 5.9,1.558 5.9,4.273" /></g><g
           transform="translate(192.5303,130.292)"
           id="g3815"><path
             id="path3817"
             style="fill:#d3a317;fill-opacity:1;fill-rule:nonzero;stroke:none"
             d="m 0,0 c -1.823,3.82 -4.22,6.583 -7.07,7.845 1.313,-0.032 2.612,0.624 3.345,1.783 1.27,1.988 4.11,9.433 2.052,19.848 -0.248,1.256 -0.556,2.493 -0.905,3.702 C 0.107,26.876 1.606,19.944 1.606,12.661 1.606,8.288 1.011,4.062 0,0 m -9.544,-19.586 c 0.236,1.083 0.272,2.184 0.057,3.231 -0.189,0.902 -0.577,1.697 -1.077,2.399 0.119,-0.005 0.238,-0.065 0.356,-0.065 0.741,0 1.469,0.117 2.168,0.345 1.866,0.61 3.218,1.988 3.705,3.768 1.475,5.394 -3.389,9.128 -3.595,9.28 l -0.071,-0.096 c -0.647,0.523 -1.406,0.892 -2.272,0.892 -2.159,0 -3.908,-1.918 -3.908,-4.284 0,-2.366 1.749,-4.284 3.908,-4.284 0.99,0 1.869,0.437 2.557,1.102 0.081,-0.532 0.156,-1.072 -0.008,-1.669 -0.226,-0.838 -0.981,-1.198 -1.407,-1.343 -1.303,-0.416 -2.901,-0.021 -4.294,1.087 -2.154,1.718 -4.322,4.758 -2.415,9.46 0.905,2.238 2.23,3.761 3.828,4.418 1.153,0.472 2.361,0.457 3.527,-0.054 2.854,-1.254 5.282,-4.93 6.808,-10.054 -1.896,-5.142 -4.552,-9.902 -7.867,-14.133 m -4.162,-1.008 c -0.639,-0.976 -1.551,-1.718 -2.518,-2.029 -0.858,-0.264 -1.661,-0.194 -2.278,0.208 -0.665,0.442 -0.926,1.136 -1.029,1.647 -0.226,1.095 0.062,2.411 0.775,3.505 v 0.007 c 0.714,1.101 1.798,1.898 2.889,2.126 0.179,0.034 0.39,0.063 0.624,0.063 0.405,0 0.857,-0.09 1.283,-0.368 0.665,-0.443 0.926,-1.135 1.029,-1.648 0.226,-1.094 -0.062,-2.41 -0.775,-3.511 m -8.099,-10.332 c 0.643,1.025 1.061,2.156 0.992,3.303 -0.069,1.219 -0.583,2.312 -1.441,3.074 -0.975,0.88 -2.326,1.261 -3.725,1.019 -0.466,-0.076 -0.903,-0.282 -1.338,-0.481 1.816,1.208 3.287,2.863 4.358,4.782 -0.074,-0.762 -0.167,-1.531 -0.016,-2.265 0.343,-1.642 1.248,-3.027 2.552,-3.885 0.954,-0.631 2.052,-0.956 3.197,-0.956 0.533,0 1.079,0.127 1.624,0.266 -1.947,-1.765 -4.005,-3.403 -6.203,-4.857 m -3.145,1.489 c -0.371,-0.43 -0.858,-0.721 -1.331,-0.797 -0.199,-0.048 -0.556,-0.055 -0.823,0.166 -0.426,0.381 -0.364,1.426 0.363,2.244 0.371,0.429 0.857,0.72 1.331,0.797 0.068,0.013 0.151,0.02 0.24,0.02 0.192,0 0.418,-0.042 0.59,-0.194 0.199,-0.173 0.254,-0.443 0.261,-0.637 0.034,-0.519 -0.2,-1.115 -0.631,-1.599 m -6.93,-6.629 c 0.535,0.583 0.971,1.235 1.167,1.974 0.275,1.053 0.144,2.119 -0.364,3.006 -0.583,1.025 -1.626,1.732 -2.861,1.925 -1.111,0.201 -2.305,-0.055 -3.333,-0.657 h -0.007 c -1.188,-0.693 -2.052,-1.801 -2.381,-3.04 -0.275,-1.053 -0.144,-2.12 0.363,-2.999 0.505,-0.894 1.356,-1.539 2.389,-1.827 -2.246,-0.596 -4.538,-1.064 -6.892,-1.351 2.005,3.1 3.277,7.717 4.073,12.756 h 4.952 c 2.413,0 4.649,0.69 6.617,1.807 -0.432,-0.291 -0.861,-0.592 -1.218,-0.998 -1.977,-2.258 -2.004,-5.505 -0.062,-7.244 0.744,-0.665 1.713,-1.014 2.74,-1.055 -1.677,-0.861 -3.407,-1.622 -5.183,-2.297 m -2.983,2.009 c -0.378,-0.214 -0.783,-0.284 -1.118,-0.208 l -0.282,0.493 c 0.069,0.255 0.294,0.623 0.741,0.878 0.335,0.195 0.693,0.291 1.036,0.236 l 0.377,-0.512 c -0.089,-0.333 -0.364,-0.658 -0.754,-0.887 m -15.155,-5.394 c -3.852,0 -7.956,8.238 -8.022,31.184 h 16.045 c -0.055,-15.61 -2.534,-31.184 -8.023,-31.184 m -12.989,1.736 c 0.057,0.013 0.117,0.007 0.174,0.023 1.042,0.276 1.9,0.927 2.421,1.828 0.583,1.017 0.659,2.278 0.213,3.455 -0.405,1.067 -1.2,1.988 -2.237,2.591 -2.271,1.301 -5.042,0.748 -6.201,-1.268 -0.944,-1.653 -0.44,-3.744 1.008,-5.176 -1.943,0.715 -3.833,1.533 -5.66,2.469 0.03,0 0.06,-0.008 0.089,-0.008 1.098,0 2.134,0.381 2.923,1.087 0.858,0.77 1.372,1.863 1.441,3.089 0.082,1.462 -0.467,2.979 -1.51,4.155 -0.373,0.425 -0.819,0.748 -1.273,1.047 1.988,-1.148 4.257,-1.856 6.707,-1.856 h 4.546 c 0.867,-5.722 2.218,-9.98 4.053,-12.744 -2.284,0.282 -4.511,0.734 -6.694,1.308 m -0.725,3.45 c -0.336,-0.083 -0.755,-0.013 -1.125,0.215 -0.659,0.381 -0.851,0.997 -0.741,1.198 0.075,0.118 0.281,0.207 0.556,0.207 0.247,0 0.548,-0.069 0.85,-0.249 0.337,-0.193 0.597,-0.477 0.713,-0.782 z m -11.032,4.828 c -0.727,0.817 -0.789,1.862 -0.363,2.243 0.171,0.145 0.391,0.187 0.576,0.187 0.096,0 0.178,-0.007 0.247,-0.02 0.473,-0.077 0.96,-0.368 1.331,-0.797 h 0.007 c 0.418,-0.478 0.652,-1.073 0.624,-1.593 -0.013,-0.2 -0.069,-0.471 -0.267,-0.651 -0.261,-0.214 -0.632,-0.207 -0.824,-0.166 -0.473,0.076 -0.96,0.367 -1.331,0.797 m -2.977,-1.79 c -2.493,1.612 -4.827,3.437 -7.004,5.443 0.31,-0.112 0.585,-0.339 0.905,-0.405 0.453,-0.098 0.899,-0.139 1.338,-0.139 1.159,0 2.271,0.318 3.21,0.949 1.304,0.858 2.209,2.243 2.553,3.885 0.154,0.75 0.064,1.537 -0.016,2.317 1.083,-1.96 2.584,-3.641 4.439,-4.863 -0.459,0.218 -0.924,0.429 -1.418,0.51 -1.4,0.249 -2.752,-0.146 -3.726,-1.019 -1.792,-1.604 -1.829,-4.467 -0.281,-6.678 m -8.267,10.64 c -0.713,1.094 -1.001,2.41 -0.775,3.504 0.103,0.513 0.364,1.205 1.029,1.648 0.371,0.243 0.816,0.368 1.29,0.368 0.316,0 0.645,-0.056 0.987,-0.16 0.968,-0.311 1.88,-1.052 2.519,-2.029 v -0.007 c 0.713,-1.094 1.001,-2.41 0.775,-3.505 -0.103,-0.511 -0.364,-1.205 -1.036,-1.647 -0.659,-0.45 -1.413,-0.396 -1.901,-0.305 -1.09,0.229 -2.174,1.025 -2.888,2.133 m -3.43,20.755 c -0.867,0 -1.626,-0.37 -2.274,-0.894 l -0.072,0.098 c -0.206,-0.152 -5.063,-3.886 -3.595,-9.28 0.487,-1.78 1.838,-3.158 3.712,-3.768 0.692,-0.228 1.419,-0.345 2.16,-0.345 0.12,0 0.239,0.06 0.359,0.065 -0.501,-0.702 -0.89,-1.497 -1.079,-2.399 -0.281,-1.369 -0.027,-2.799 0.455,-4.186 -3.557,4.332 -6.387,9.274 -8.416,14.614 1.513,5.382 4.021,9.234 6.959,10.528 1.153,0.511 2.374,0.526 3.527,0.054 1.598,-0.65 2.922,-2.18 3.835,-4.418 1.907,-4.702 -0.261,-7.742 -2.415,-9.46 -1.393,-1.108 -2.985,-1.509 -4.301,-1.087 -0.426,0.145 -1.181,0.505 -1.407,1.343 -0.163,0.597 -0.088,1.138 -0.006,1.669 0.688,-0.665 1.568,-1.102 2.558,-1.102 2.158,0 3.907,1.918 3.907,4.284 0,2.366 -1.749,4.284 -3.907,4.284 m -12.205,12.493 c 0,8.193 1.935,15.921 5.288,22.825 -0.654,-1.925 -1.249,-3.931 -1.659,-6.01 -2.057,-10.415 0.783,-17.86 2.052,-19.848 0.726,-1.149 2.009,-1.806 3.311,-1.787 -2.952,-1.314 -5.438,-4.2 -7.28,-8.254 -1.078,4.186 -1.712,8.552 -1.712,13.074 m 7.074,16.123 c 1.413,7.16 5.014,13.954 6.743,16.925 0.919,-0.617 2.196,-1.392 3.773,-2.167 -0.665,-0.008 -1.53,-0.181 -2.497,-0.77 -3.615,-2.195 -6.133,-8.622 -7.498,-19.335 0,-3.732 0.597,-6.808 1.036,-9.051 0.199,-1.025 0.37,-1.849 0.391,-2.431 0.02,-0.381 -0.021,-0.609 -0.391,-0.415 -0.796,1.26 -3.41,7.867 -1.557,17.244 m 16.919,27.821 c -0.069,-0.397 -0.146,-0.794 -0.146,-1.208 0,-4.667 4.542,-8.469 10.126,-8.469 4.221,0 7.839,2.175 9.357,5.252 0.07,-1.39 0.185,-2.72 0.366,-3.967 -13.578,-9.461 -26.222,-0.925 -28.783,1.028 2.73,2.793 5.787,5.247 9.08,7.364 m 9.98,3.709 c 3.649,0 6.613,-2.209 6.613,-4.917 0,-2.714 -2.964,-4.923 -6.613,-4.923 -3.65,0 -6.614,2.209 -6.614,4.923 0,2.708 2.964,4.917 6.614,4.917 m 9.584,3.758 c -0.145,-1.54 -0.35,-3.045 -0.35,-4.665 0,-0.194 0.003,-0.382 0.003,-0.575 -0.97,1.813 -2.686,3.271 -4.815,4.143 1.689,0.453 3.41,0.817 5.162,1.097 m 3.183,-23.155 v -2.403 c -5.159,1.932 -16.945,4.847 -24.786,-4.515 -3.938,-4.689 -4.542,-11.31 -1.599,-17.709 2.84,-6.191 8.232,-10.353 13.584,-10.353 h 0.014 c 0.754,0.09 2.119,-0.055 2.592,-0.492 l 0.179,-0.443 c -0.309,-0.249 -1.461,-0.513 -5.948,0.547 -0.116,0.028 -11.765,2.901 -13.892,12.729 -2.196,10.152 2.099,17.05 2.6,17.805 1.214,1.842 1.639,3.76 1.159,5.27 -0.13,0.416 -0.322,0.775 -0.569,1.087 6.112,-2.408 15.125,-3.749 24.49,2.183 0.511,-1.492 1.192,-2.777 2.176,-3.706 m 0.365,23.626 c 1.492,0.132 2.994,0.231 4.52,0.231 1.644,0 3.265,-0.097 4.871,-0.249 0.187,-1.662 0.376,-3.326 0.376,-5.118 0,-11.655 -0.479,-16.766 -5.076,-16.766 -4.596,0 -5.076,5.111 -5.076,16.766 0,1.787 0.195,3.463 0.385,5.136 M -18.117,42.44 c -0.247,-0.305 -0.44,-0.671 -0.57,-1.087 -0.48,-1.51 -0.055,-3.428 1.16,-5.27 0.501,-0.755 4.795,-7.653 2.599,-17.805 C -17.054,8.45 -28.703,5.577 -28.812,5.549 -33.279,4.496 -34.459,4.746 -34.72,4.933 l 0.131,0.512 c 0.466,0.429 1.811,0.575 2.744,0.485 5.199,0 10.599,4.162 13.447,10.367 2.935,6.392 2.338,13.013 -1.599,17.708 -7.842,9.343 -19.628,6.434 -24.787,4.509 v 2.412 c 0.981,0.928 1.661,2.212 2.17,3.7 9.366,-5.929 18.363,-4.594 24.497,-2.186 m -23.263,9.758 c 1.514,-3.086 5.134,-5.27 9.363,-5.27 5.584,0 10.126,3.802 10.126,8.469 0,0.334 -0.072,0.652 -0.118,0.976 3.209,-2.102 6.178,-4.54 8.844,-7.288 -2.998,-2.217 -15.34,-10.084 -28.581,-0.868 0.182,1.25 0.296,2.586 0.366,3.981 m 4.815,10.719 c -2.074,-0.879 -3.747,-2.315 -4.695,-4.097 0,0.198 0.002,0.389 0.002,0.587 0,1.606 -0.198,3.089 -0.34,4.611 1.708,-0.285 3.385,-0.651 5.033,-1.101 m 11.162,-7.52 c 0,-2.714 -2.964,-4.923 -6.614,-4.923 -3.649,0 -6.613,2.209 -6.613,4.923 0,2.708 2.964,4.917 6.613,4.917 3.65,0 6.614,-2.209 6.614,-4.917 M -47.24,15.404 c 1.153,-3.096 0.816,-5.34 0.809,-5.353 l -0.796,-4.641 3.205,3.422 c 1.125,1.204 2.607,2.375 2.812,2.514 0.453,-0.201 1.029,-0.52 1.174,-0.915 0.15,-0.409 -0.104,-1.066 -0.337,-1.537 -0.837,-1.683 -3.972,-4.377 -8.856,-4.453 h -1.222 c -4.884,0.069 -8.026,2.77 -8.863,4.453 -0.233,0.471 -0.487,1.128 -0.336,1.537 0.144,0.395 0.72,0.714 0.878,0.859 0.494,-0.083 1.976,-1.254 3.107,-2.458 l 3.129,-3.317 -0.72,4.529 c -0.007,0.02 -0.344,2.264 0.809,5.36 2.106,5.679 0.851,10.7 -3.54,14.141 -3.547,2.777 -8.671,3.393 -13.391,2.681 1.859,1.107 3.951,1.654 5.755,1.606 6.703,-0.131 11.993,-6.801 12.047,-6.87 l 0.426,-0.54 h 2.614 l 0.425,0.54 c 0.054,0.069 5.344,6.739 12.047,6.87 h 0.192 c 1.9,0 3.767,-0.54 5.563,-1.606 -4.712,0.712 -9.844,0.096 -13.391,-2.681 -4.391,-3.441 -5.646,-8.462 -3.54,-14.141 m 1.51,18.871 c 0.15,0.077 14.591,7.507 23.057,-2.562 1.321,-1.579 2.05,-3.493 2.361,-5.537 l -3.239,3.833 c -3.814,4.509 -8.116,6.753 -12.589,6.656 -6.833,-0.139 -12.122,-5.561 -13.707,-7.376 -1.578,1.815 -6.867,7.237 -13.7,7.376 -0.096,0 -0.185,0.006 -0.274,0.006 -4.439,0 -8.576,-2.243 -12.315,-6.662 l -3.238,-3.831 c 0.313,2.042 1.041,3.954 2.36,5.528 8.438,10.048 22.468,2.867 23.058,2.569 l 2.565,-1.343 v 6.405 c 0.508,-0.088 0.96,-0.242 1.544,-0.242 0.587,0 1.04,0.155 1.551,0.243 v -6.413 z m -15.637,-50.453 c -4.189,0.094 -7.106,2.103 -7.106,3.936 0,1.811 2.84,3.768 6.922,3.92 0.008,-2.778 0.064,-5.409 0.184,-7.856 m 22.67,-0.027 c 0.153,2.796 0.213,5.483 0.22,7.907 4.203,-0.089 7.125,-2.102 7.125,-3.944 0,-1.87 -3.014,-3.948 -7.345,-3.963 m 10.159,3.963 c 0,3.823 -4.481,6.814 -10.202,6.814 h -22.351 c -5.715,0 -10.194,-2.991 -10.194,-6.814 0,-3.803 4.451,-6.783 10.137,-6.804 0.089,-1.242 0.159,-2.542 0.28,-3.688 h -4.044 c -5.571,0 -10.099,4.571 -10.099,10.194 0,5.623 4.528,10.194 10.099,10.194 h 30.138 c 5.57,0 10.098,-4.571 10.098,-10.194 0,-5.623 -4.528,-10.194 -10.098,-10.194 h -4.47 c 0.14,1.226 0.264,2.456 0.359,3.684 h 0.145 c 5.721,0 10.202,2.992 10.202,6.808 m 12.595,0.596 c -0.219,-0.025 -0.423,0.034 -0.645,-0.014 -1.886,-0.397 -3.596,-1.644 -4.824,-3.362 0.147,0.807 0.249,1.632 0.249,2.482 0,7.576 -6.107,13.74 -13.611,13.74 h -30.138 c -7.505,0 -13.611,-6.164 -13.611,-13.74 0,-0.856 0.101,-1.688 0.25,-2.5 -1.07,1.508 -2.503,2.661 -4.133,3.186 -0.478,0.155 -0.938,0.104 -1.409,0.153 4.047,3.44 5.249,8.241 3.199,13.282 -1.618,3.968 -4.027,5.65 -5.762,6.364 -1.591,0.646 -3.272,0.611 -4.901,0.207 1.153,0.52 2.251,1.749 2.17,3.941 -0.027,0.72 -0.212,1.725 -0.459,2.978 -0.405,2.099 -0.968,4.98 -0.981,8.137 1.57,12.175 4.404,15.493 5.557,16.351 0.267,0.208 0.493,0.319 0.672,0.374 -0.028,-0.374 -0.192,-1.025 -0.762,-1.883 -0.583,-0.88 -5.611,-8.948 -3.107,-20.534 2.071,-9.584 11.71,-14.273 16.513,-15.415 1.893,-0.451 3.814,-0.853 5.495,-0.853 1.351,0 2.545,0.264 3.437,0.977 0.59,0.471 1.296,1.343 1.296,2.819 0,1.204 -0.446,2.25 -1.289,3.025 -1.784,1.642 -4.721,1.469 -5.111,1.407 -3.794,0 -8.013,3.414 -10.256,8.303 -1.203,2.618 -1.657,5.254 -1.431,7.696 l 5.053,2.325 c 4.912,2.272 12.485,2.867 16.767,-0.498 3.437,-2.688 4.321,-6.358 2.634,-10.901 -0.481,-1.295 -0.748,-2.472 -0.885,-3.476 -1.263,0.928 -2.58,1.475 -3.622,1.024 -1.4,-0.609 -2.312,-1.468 -2.704,-2.548 -0.397,-1.108 -0.247,-2.34 0.467,-3.781 1.173,-2.369 5.159,-5.929 11.354,-6.018 h 1.269 0.007 c 6.174,0.089 10.16,3.649 11.334,6.018 0.713,1.441 0.864,2.673 0.465,3.781 -0.39,1.08 -1.302,1.939 -2.703,2.548 -1.076,0.451 -2.373,-0.103 -3.622,-1.024 -0.136,1.004 -0.404,2.181 -0.884,3.476 -1.688,4.543 -0.803,8.213 2.634,10.901 4.274,3.365 11.834,2.77 16.767,0.498 l 5.054,-2.326 c 0.225,-2.439 -0.231,-5.072 -1.432,-7.688 -2.25,-4.896 -6.47,-8.31 -10.099,-8.317 -0.548,0.049 -3.478,0.242 -5.268,-1.4 -0.844,-0.775 -1.29,-1.821 -1.29,-3.025 0,-1.476 0.707,-2.348 1.297,-2.819 0.884,-0.713 2.086,-0.977 3.436,-0.977 1.675,0 3.596,0.402 5.495,0.853 4.803,1.142 14.442,5.831 16.514,15.415 2.504,11.586 -2.525,19.654 -3.108,20.534 -0.57,0.858 -0.734,1.509 -0.761,1.883 0.178,-0.055 0.404,-0.166 0.672,-0.374 1.152,-0.858 3.986,-4.176 5.543,-16.122 0,-3.373 -0.556,-6.247 -0.967,-8.338 -0.247,-1.267 -0.433,-2.286 -0.46,-3.006 -0.082,-2.212 1.038,-3.447 2.203,-3.957 -1.653,0.419 -3.359,0.456 -4.961,-0.198 -1.735,-0.713 -4.143,-2.389 -5.756,-6.357 -2.04,-5.017 -0.85,-9.791 3.149,-13.227 m 10.826,40.43 c 1.852,-9.377 -0.762,-15.984 -1.86,-17.445 -0.027,0.034 -0.102,0.228 -0.088,0.623 0.02,0.589 0.192,1.413 0.39,2.452 0.44,2.236 1.036,5.304 1.023,9.252 -1.352,10.484 -3.869,16.911 -7.485,19.106 -0.967,0.589 -1.832,0.762 -2.497,0.77 1.577,0.775 2.854,1.55 3.78,2.167 1.722,-2.971 5.317,-9.751 6.737,-16.925 M 5.118,12.661 c 0,30.693 -24.731,55.659 -55.136,55.659 -30.405,0 -55.137,-24.966 -55.137,-55.659 0,-30.693 24.732,-55.658 55.137,-55.658 24.048,0 44.493,15.643 52.013,37.36 l 0.084,0.023 c -0.01,0.039 -0.026,0.069 -0.036,0.108 1.959,5.703 3.075,11.799 3.075,18.167" /></g></g></g><text
       id="text3821"
       style="font-variant:normal;font-weight:bold;font-stretch:normal;font-size:46.76000214px;font-family:Calibri;-inkscape-font-specification:Calibri-Bold;writing-mode:lr-tb;fill:#d3a317;fill-opacity:1;fill-rule:nonzero;stroke:none"
       transform="matrix(0.74484171,-0.6672412,-0.6672412,-0.74484171,48.3531,59.6456)"><tspan
         id="tspan3819"
         y="0"
         x="0">П</tspan></text>
<text
       id="text3825"
       style="font-variant:normal;font-weight:bold;font-stretch:normal;font-size:46.76004791px;font-family:Calibri;-inkscape-font-specification:Calibri-Bold;writing-mode:lr-tb;fill:#d3a317;fill-opacity:1;fill-rule:nonzero;stroke:none"
       transform="matrix(0.90418638,-0.42713813,-0.42713813,-0.90418638,74.8105,36.805)"><tspan
         id="tspan3823"
         y="0"
         x="0">О</tspan></text>
<text
       id="text3829"
       style="font-variant:normal;font-weight:bold;font-stretch:normal;font-size:46.76000977px;font-family:Calibri;-inkscape-font-specification:Calibri-Bold;writing-mode:lr-tb;fill:#d3a317;fill-opacity:1;fill-rule:nonzero;stroke:none"
       transform="matrix(0.98617812,-0.16568858,-0.16568858,-0.98617812,107.2861,22.247)"><tspan
         id="tspan3827"
         y="0"
         x="0">Л</tspan></text>
<g
       id="g3831"><g
         clip-path="url(#clipPath3837)"
         id="g3833"><text
           id="text3841"
           style="font-variant:normal;font-weight:bold;font-stretch:normal;font-size:46.76000595px;font-family:Calibri;-inkscape-font-specification:Calibri-Bold;writing-mode:lr-tb;fill:#d3a317;fill-opacity:1;fill-rule:nonzero;stroke:none"
           transform="matrix(0.99357133,0.11320786,0.11320786,-0.99357133,141.6357,17.1544)"><tspan
             id="tspan3839"
             y="0"
             x="0">И</tspan></text>
</g></g><text
       id="text3845"
       style="font-variant:normal;font-weight:bold;font-stretch:normal;font-size:46.76001358px;font-family:Calibri;-inkscape-font-specification:Calibri-Bold;writing-mode:lr-tb;fill:#d3a317;fill-opacity:1;fill-rule:nonzero;stroke:none"
       transform="matrix(0.93355407,0.3584366,0.3584366,-0.93355407,176.467,22.1868)"><tspan
         id="tspan3843"
         y="0"
         x="0">Т</tspan></text>
<text
       id="text3849"
       style="font-variant:normal;font-weight:bold;font-stretch:normal;font-size:46.75998306px;font-family:Calibri;-inkscape-font-specification:Calibri-Bold;writing-mode:lr-tb;fill:#d3a317;fill-opacity:1;fill-rule:nonzero;stroke:none"
       transform="matrix(0.83431384,0.55128978,0.55128978,-0.83431384,201.7198,32.3846)"><tspan
         id="tspan3847"
         y="0"
         x="0">Е</tspan></text>
<text
       id="text3853"
       style="font-variant:normal;font-weight:bold;font-stretch:normal;font-size:46.75998688px;font-family:Calibri;-inkscape-font-specification:Calibri-Bold;writing-mode:lr-tb;fill:#d3a317;fill-opacity:1;fill-rule:nonzero;stroke:none"
       transform="matrix(0.69008786,0.7237256,0.7237256,-0.69008786,224.1155,47.5582)"><tspan
         id="tspan3851"
         y="0"
         x="0">Х</tspan></text>
<g
       id="g3855"><g
         clip-path="url(#clipPath3861)"
         id="g3857"><g
           transform="translate(220.9023,128.2647)"
           id="g3863"><path
             id="path3865"
             style="fill:#d3a317;fill-opacity:1;fill-rule:nonzero;stroke:none"
             d="M 0,0 -6.463,2.182 0.732,5.883 C 0.55,3.902 0.328,1.936 0,0 m -4.465,-15.67 -2.734,1.293 -0.776,-1.647 -13.144,6.184 0.775,1.649 -2.019,0.949 c 0.269,0.709 0.595,1.391 0.837,2.115 1.117,-3.789 4.248,-7.085 8.537,-7.085 2.609,0 4.983,1.062 6.509,2.908 1.46,1.764 2.021,4.042 1.562,6.453 -0.131,0.681 -0.42,1.332 -0.768,1.955 l 5.144,-1.737 c -0.923,-4.504 -2.297,-8.832 -3.923,-13.037 m 1.878,-6.267 c -0.295,-0.773 -1.168,-1.145 -1.922,-0.854 -0.109,0.043 -0.149,0.168 -0.243,0.232 0.416,0.854 0.87,1.686 1.256,2.555 0.02,-0.006 0.041,-0.004 0.06,-0.011 0.373,-0.143 0.664,-0.42 0.826,-0.782 0.157,-0.362 0.167,-0.768 0.023,-1.14 m -6.463,2.075 -15.691,7.383 0.515,1.106 15.692,-7.383 z m -0.248,-6.084 -18.072,8.376 c 0.22,0.355 0.402,0.733 0.615,1.092 l 2.057,-0.966 0.762,1.62 13.144,-6.185 -0.762,-1.617 2.795,-1.32 c -0.185,-0.33 -0.352,-0.671 -0.539,-1 m -3.356,-5.396 -17.665,9.426 c 0.557,0.749 1.15,1.471 1.673,2.246 l 18.127,-8.401 c -0.677,-1.115 -1.405,-2.194 -2.135,-3.271 m -6.689,-8.546 -5.254,12.146 10.563,-5.636 c -1.646,-2.273 -3.439,-4.427 -5.309,-6.51 m -2.48,-2.693 -15.945,6.266 -1.998,2.677 15.969,-6.276 -6.695,15.317 2.434,-1.299 6.906,-15.957 c -0.229,-0.238 -0.44,-0.493 -0.671,-0.728 m -6.737,-6.069 -6.437,8.624 11.233,-4.413 c -1.542,-1.466 -3.139,-2.872 -4.796,-4.211 m -4.957,-3.711 -11.106,16.622 c 0.746,0.511 1.447,1.081 2.169,1.624 l 11.969,-16.034 c -0.996,-0.757 -1.998,-1.502 -3.032,-2.212 m -6.794,-4.186 -1.314,2.807 -1.648,-0.771 -6.149,13.16 1.65,0.77 -1.031,2.213 -1.896,-0.885 c 1.354,0.708 2.714,1.408 4.006,2.217 l 11.132,-16.661 c -1.55,-0.998 -3.137,-1.944 -4.75,-2.85 m -2.597,-5.96 c -0.343,-0.195 -0.73,-0.243 -1.13,-0.133 -0.382,0.11 -0.701,0.363 -0.893,0.71 -0.042,0.077 0,0.162 -0.028,0.243 0.867,0.39 1.7,0.84 2.552,1.259 0.017,-0.027 0.055,-0.027 0.071,-0.056 0.401,-0.715 0.144,-1.626 -0.572,-2.023 m -3.644,5.734 -7.341,15.71 1.108,0.515 7.34,-15.71 z m -3.042,-4.069 c -3.927,-1.52 -7.961,-2.825 -12.15,-3.737 l -1.927,5.697 c 0.467,-0.213 0.953,-0.374 1.445,-0.469 2.403,-0.459 4.695,0.102 6.458,1.563 1.847,1.53 2.909,3.899 2.909,6.509 0,0.964 -0.183,1.864 -0.484,2.704 l 4.081,-8.735 -1.631,-0.76 z m -45.147,7.83 c 0.677,0 1.281,0.274 1.742,0.698 -0.084,-0.283 -0.179,-0.552 -0.343,-0.748 -0.386,-0.463 -1.052,-0.749 -1.985,-0.854 -0.674,-0.036 -1.171,0.239 -1.474,0.51 -0.552,0.491 -0.877,1.231 -0.877,1.98 0,0.468 0.164,0.881 0.39,1.255 -0.009,-0.084 -0.05,-0.158 -0.05,-0.244 0,-1.435 1.163,-2.597 2.597,-2.597 m 35.295,3.053 c 0.313,-0.416 0.532,-0.907 0.532,-1.467 0,-0.749 -0.326,-1.489 -0.877,-1.98 -0.272,-0.243 -0.708,-0.519 -1.277,-0.519 -0.065,0 -0.129,0.004 -0.198,0.009 -1.071,0.118 -1.735,0.485 -2.113,1.105 0.855,-0.381 1.861,-0.381 2.701,0.171 0.921,0.606 1.343,1.656 1.232,2.681 m -5.195,-5.314 c -0.031,0.067 -0.025,0.127 -0.05,0.192 0.777,-0.893 1.855,-1.528 3.377,-1.694 1.175,-0.138 2.361,0.257 3.302,1.092 1.038,0.933 1.658,2.326 1.658,3.731 0,2.669 -2.167,4.837 -4.832,4.837 -1.502,0 -2.986,-0.859 -4.051,-2.435 l -12.773,-19.859 -11.259,16.601 c -0.035,0.081 -0.02,0.174 -0.061,0.254 l -0.054,-0.028 -1.632,3.165 c -0.987,1.443 -2.471,2.302 -3.974,2.302 -2.664,0 -4.832,-2.168 -4.832,-4.837 0,-1.405 0.62,-2.798 1.658,-3.731 0.937,-0.835 2.113,-1.234 3.303,-1.092 1.499,0.164 2.636,0.712 3.421,1.595 -0.015,-0.033 -0.009,-0.063 -0.026,-0.097 -0.524,-1.085 -1.815,-2.049 -3.064,-2.292 -1.695,-0.309 -3.294,0.058 -4.515,1.065 -1.305,1.079 -2.054,2.793 -2.054,4.699 0,3.983 3.983,6.66 7.703,6.66 2.467,0 4.585,-1.8 5.665,-3.357 l 9.721,-15.622 9.557,15.493 c 1.162,1.686 3.28,3.486 5.742,3.486 3.721,0 7.708,-2.677 7.708,-6.66 0,-1.906 -0.749,-3.615 -2.054,-4.695 -1.216,-1.005 -2.806,-1.392 -4.519,-1.069 -1.249,0.243 -2.541,1.207 -3.065,2.296 m -6.904,-10.831 4.516,8.827 2.656,-7.857 c -2.357,-0.429 -4.747,-0.758 -7.172,-0.97 m -20.238,0.839 2.517,7.459 4.279,-8.317 c -2.294,0.192 -4.562,0.473 -6.796,0.858 m -2.633,0.545 c -4.481,0.934 -8.79,2.311 -12.974,3.941 l 1.296,2.765 -1.626,0.761 6.148,13.162 1.301,-0.607 c -1.982,-1.577 -3.388,-3.822 -3.388,-6.581 0,-2.61 1.061,-4.984 2.908,-6.509 1.763,-1.461 4.042,-2.022 6.453,-1.563 0.681,0.131 1.332,0.42 1.954,0.768 z m -16.014,8.004 -1.106,0.515 7.34,15.711 1.107,-0.516 z m -1.621,-5.156 c -0.191,-0.349 -0.511,-0.601 -0.892,-0.711 -0.406,-0.105 -0.787,-0.062 -1.131,0.134 -0.715,0.395 -0.972,1.306 -0.572,2.027 0.017,0.03 0.051,0.041 0.069,0.07 0.855,-0.422 1.682,-0.892 2.554,-1.285 -0.028,-0.078 0.013,-0.161 -0.028,-0.235 m -3.305,8.189 -1.311,-2.796 c -1.507,0.852 -2.992,1.741 -4.447,2.671 l 11.137,16.667 c 1.254,-0.78 2.572,-1.459 3.885,-2.144 l -2.087,0.974 -1.029,-2.212 1.646,-0.77 -6.146,-13.16 z m -10.849,3.413 11.972,16.038 c 0.725,-0.542 1.425,-1.118 2.175,-1.627 l -11.1,-16.613 c -1.036,0.709 -2.047,1.447 -3.047,2.202 m -6.803,5.763 11.404,4.481 -6.527,-8.745 c -1.684,1.357 -3.309,2.778 -4.877,4.264 m -2.518,2.475 6.983,16.136 2.435,1.299 -6.695,-15.317 15.969,6.276 -1.999,-2.677 -16.124,-6.336 c -0.197,0.199 -0.375,0.417 -0.569,0.619 m -1.809,1.964 c -1.906,2.11 -3.729,4.293 -5.404,6.598 l 10.735,5.728 z m -8.935,11.911 18.129,8.401 c 0.527,-0.778 1.125,-1.502 1.686,-2.253 l -17.671,-9.429 c -0.734,1.08 -1.462,2.164 -2.144,3.281 m -1.736,3.062 2.516,1.179 -0.763,1.623 13.141,6.183 0.762,-1.62 2.213,1.04 -0.867,1.843 c 0.518,-0.943 1.018,-1.897 1.584,-2.811 l -18.078,-8.378 c -0.176,0.309 -0.333,0.631 -0.508,0.941 m 15.184,13.436 0.515,-1.107 -15.692,-7.382 -0.515,1.106 z m -17.018,-3.005 -2.485,-1.163 c -1.604,4.121 -2.963,8.362 -3.892,12.773 l 5.003,1.692 c -0.213,-0.467 -0.374,-0.953 -0.468,-1.446 -0.46,-2.402 0.101,-4.694 1.562,-6.458 1.529,-1.846 3.899,-2.907 6.509,-2.907 4.135,0 7.211,3.064 8.428,6.682 0.35,-1.028 0.792,-2.007 1.195,-3.007 l -0.499,1.061 -2.213,-1.041 0.774,-1.646 -13.141,-6.184 z m -2.7,-8.413 c -0.377,-0.138 -0.777,-0.134 -1.135,0.028 -0.362,0.158 -0.643,0.453 -0.786,0.825 -0.296,0.764 0.085,1.627 0.848,1.923 0.122,0.046 0.248,0.055 0.373,0.07 0.365,-0.813 0.789,-1.592 1.178,-2.39 -0.151,-0.164 -0.262,-0.373 -0.478,-0.456 m -5.068,29.165 7.999,-4.091 -7.156,-2.42 c -0.375,2.142 -0.646,4.315 -0.843,6.511 m 12.636,-10.443 c 0.605,-0.921 1.656,-1.342 2.68,-1.232 -0.416,-0.312 -0.907,-0.532 -1.466,-0.532 -0.749,0 -1.489,0.326 -1.98,0.877 -0.243,0.271 -0.519,0.708 -0.519,1.278 0,0.064 0.005,0.128 0.009,0.197 0.118,1.071 0.485,1.735 1.105,2.114 -0.381,-0.855 -0.381,-1.863 0.171,-2.702 m 5.412,24.363 V 7.206 l -11.086,6.4 z m -5.086,7.958 c -0.282,0.084 -0.552,0.18 -0.748,0.343 -0.463,0.386 -0.749,1.052 -0.854,1.984 -0.037,0.676 0.239,1.172 0.51,1.475 0.491,0.551 1.231,0.878 1.98,0.878 0.467,0 0.881,-0.165 1.255,-0.391 -0.085,0.009 -0.158,0.05 -0.245,0.05 -1.433,0 -2.596,-1.163 -2.596,-2.597 0,-0.676 0.274,-1.28 0.698,-1.742 m -16.301,-14.333 16.602,11.259 c 0.081,0.036 0.174,0.02 0.254,0.062 l -0.029,0.054 3.166,1.631 c 1.442,0.988 2.301,2.472 2.301,3.974 0,2.664 -2.168,4.832 -4.837,4.832 -1.406,0 -2.798,-0.62 -3.73,-1.658 -0.836,-0.937 -1.235,-2.113 -1.093,-3.303 0.164,-1.499 0.713,-2.636 1.596,-3.421 -0.034,0.015 -0.064,0.01 -0.098,0.026 -1.085,0.524 -2.049,1.815 -2.292,3.064 -0.309,1.695 0.059,3.294 1.065,4.515 1.08,1.305 2.793,2.054 4.699,2.054 3.983,0 6.661,-3.983 6.661,-7.703 0,-2.467 -1.801,-4.585 -3.358,-5.664 l -15.622,-9.722 15.493,-9.557 c 1.686,-1.162 3.487,-3.28 3.487,-5.742 0,-3.721 -2.678,-7.707 -6.661,-7.707 -1.906,0 -3.615,0.748 -4.694,2.053 -1.006,1.216 -1.392,2.806 -1.07,4.52 0.243,1.249 1.207,2.54 2.296,3.064 0.067,0.031 0.127,0.025 0.193,0.05 -0.894,-0.776 -1.529,-1.855 -1.695,-3.377 -0.138,-1.175 0.257,-2.361 1.093,-3.302 0.932,-1.038 2.324,-1.658 3.73,-1.658 2.669,0 4.837,2.168 4.837,4.833 0,1.502 -0.859,2.985 -2.434,4.05 z m 4.119,12.858 6.69,-2.259 -7.473,-3.844 c 0.192,2.055 0.436,4.096 0.783,6.103 m 4.348,15.15 2.54,-1.069 0.696,1.656 13.392,-5.634 -0.695,-1.655 1.783,-0.748 c -0.201,-0.566 -0.442,-1.112 -0.631,-1.684 -1.337,3.364 -4.298,6.119 -8.216,6.119 -2.61,0 -4.984,-1.061 -6.509,-2.908 -1.461,-1.763 -2.022,-4.042 -1.562,-6.453 0.13,-0.681 0.419,-1.332 0.767,-1.954 l -5.344,1.804 c 0.902,4.323 2.228,8.479 3.779,12.526 m -2.206,6.729 c 0.182,0.358 0.491,0.62 0.868,0.744 0.153,0.048 0.31,0.076 0.463,0.076 0.233,0 0.462,-0.057 0.672,-0.162 0.219,-0.111 0.308,-0.331 0.443,-0.517 -0.356,-0.738 -0.759,-1.448 -1.093,-2.197 -0.235,-0.003 -0.469,-0.059 -0.695,0.053 -0.734,0.372 -1.03,1.274 -0.658,2.003 m 6.348,-2.289 15.988,-6.725 -0.477,-1.126 -15.987,6.725 z m 1.222,6.898 17.471,-8.098 c -0.28,-0.46 -0.504,-0.954 -0.772,-1.422 l -2.167,0.91 -0.706,-1.68 -13.391,5.633 0.704,1.675 -2.237,0.941 c 0.372,0.677 0.71,1.375 1.098,2.041 m 3.428,5.345 16.98,-9.061 c -0.558,-0.758 -1.137,-1.498 -1.66,-2.283 l -17.463,8.093 c 0.689,1.103 1.403,2.185 2.143,3.251 m 6.605,8.278 5.079,-11.741 -10.263,5.476 c 1.618,2.182 3.358,4.263 5.184,6.265 m 2.78,2.911 15.47,-6.079 1.999,-2.678 -15.969,6.277 6.695,-15.318 -2.435,1.299 -6.731,15.555 c 0.316,0.323 0.65,0.626 0.971,0.944 m 6.563,5.853 6.136,-8.221 -10.757,4.227 c 1.493,1.384 3.024,2.727 4.621,3.994 m 4.323,3.208 c 0.213,0.148 0.443,0.274 0.658,0.419 l 10.49,-15.699 c -0.753,-0.517 -1.462,-1.089 -2.191,-1.639 l -11.326,15.172 c 0.786,0.587 1.559,1.19 2.369,1.747 m 6.675,3.965 1.176,-2.399 1.608,0.791 6.409,-13.036 -1.607,-0.791 0.739,-1.505 c -0.589,-0.343 -1.208,-0.641 -1.785,-1.003 l -10.495,15.707 c 1.278,0.807 2.637,1.489 3.955,2.236 m 2.711,6.601 c 0.181,0.071 0.372,0.11 0.563,0.11 0.196,0 0.396,-0.039 0.582,-0.12 0.367,-0.157 0.649,-0.443 0.797,-0.811 0.069,-0.172 -0.008,-0.338 -0.004,-0.513 -0.764,-0.347 -1.491,-0.758 -2.242,-1.127 -0.192,0.156 -0.416,0.284 -0.511,0.52 -0.305,0.762 0.057,1.631 0.815,1.941 m 3.286,-5.895 7.651,-15.563 -1.097,-0.535 -7.65,15.563 z m 3.229,3.706 c 4.214,1.652 8.556,3.043 13.073,3.986 l 1.594,-4.716 c -0.466,0.212 -0.952,0.373 -1.444,0.468 -2.402,0.459 -4.694,-0.102 -6.458,-1.562 -1.847,-1.53 -2.908,-3.9 -2.908,-6.509 0,-3.814 2.614,-6.708 5.856,-8.095 -0.468,-0.161 -0.911,-0.37 -1.374,-0.54 l -0.803,1.634 -1.631,-0.803 -6.409,13.036 1.63,0.802 z m 45.738,-6.6 c -0.676,0 -1.281,-0.274 -1.743,-0.698 0.084,0.282 0.18,0.552 0.344,0.747 0.386,0.464 1.052,0.749 1.985,0.854 0.674,0.037 1.171,-0.238 1.474,-0.509 0.551,-0.492 0.877,-1.232 0.877,-1.98 0,-0.468 -0.164,-0.882 -0.389,-1.256 0.007,0.085 0.048,0.158 0.048,0.245 0,1.434 -1.162,2.597 -2.596,2.597 m -35.295,-3.053 c -0.313,0.416 -0.532,0.908 -0.532,1.467 0,0.748 0.326,1.488 0.877,1.98 0.271,0.243 0.708,0.519 1.277,0.519 0.065,0 0.129,-0.005 0.198,-0.01 1.071,-0.118 1.735,-0.485 2.113,-1.105 -0.854,0.382 -1.861,0.381 -2.701,-0.17 -0.922,-0.606 -1.343,-1.656 -1.232,-2.681 m 5.403,4.788 c 0.031,-0.067 0.025,-0.127 0.051,-0.192 -0.777,0.893 -1.856,1.528 -3.377,1.694 -1.176,0.138 -2.361,-0.257 -3.302,-1.093 -1.039,-0.932 -1.659,-2.324 -1.659,-3.73 0,-2.669 2.168,-4.837 4.832,-4.837 1.503,0 2.986,0.859 4.052,2.434 l 12.773,19.86 11.258,-16.601 c 0.036,-0.082 0.021,-0.175 0.062,-0.255 l 0.054,0.029 1.631,-3.166 c 0.988,-1.442 2.472,-2.301 3.974,-2.301 2.664,0 4.833,2.168 4.833,4.837 0,1.406 -0.62,2.798 -1.659,3.73 -0.937,0.836 -2.113,1.235 -3.302,1.093 -1.499,-0.164 -2.637,-0.713 -3.421,-1.596 0.014,0.034 0.009,0.064 0.025,0.098 0.525,1.085 1.815,2.049 3.065,2.292 1.694,0.308 3.293,-0.059 4.515,-1.065 1.304,-1.08 2.053,-2.793 2.053,-4.699 0,-3.983 -3.982,-6.66 -7.703,-6.66 -2.467,0 -4.584,1.8 -5.664,3.357 L -78.3,90.937 -87.857,75.444 c -1.163,-1.686 -3.28,-3.486 -5.743,-3.486 -3.72,0 -7.707,2.677 -7.707,6.66 0,1.906 0.748,3.615 2.053,4.695 1.217,1.005 2.807,1.391 4.52,1.069 1.249,-0.243 2.541,-1.207 3.064,-2.296 m 6.107,10.206 -3.926,-7.676 -2.325,6.876 c 2.056,0.356 4.145,0.608 6.251,0.8 m 20.461,-0.772 -2.152,-6.376 -3.66,7.116 c 1.956,-0.187 3.901,-0.411 5.812,-0.74 m 2.626,-0.564 c 4.531,-0.941 8.883,-2.336 13.109,-3.99 l -1.106,-2.338 1.648,-0.775 -6.191,-13.143 -1.642,0.773 -0.751,-1.597 c -0.487,0.181 -0.956,0.4 -1.449,0.571 3.307,1.36 5.999,4.29 5.999,8.161 0,2.609 -1.062,4.984 -2.909,6.509 -1.763,1.46 -4.042,2.021 -6.453,1.562 -0.68,-0.131 -1.332,-0.419 -1.954,-0.768 z m 16.387,-7.659 1.107,-0.525 -7.388,-15.691 -1.108,0.524 z m 1.254,5.094 c 0.144,0.372 0.42,0.663 0.782,0.825 0.196,0.081 0.401,0.124 0.606,0.124 0.181,0 0.363,-0.033 0.539,-0.1 0.372,-0.143 0.663,-0.42 0.825,-0.782 0.157,-0.363 0.167,-0.768 0.024,-1.14 -0.101,-0.263 -0.337,-0.42 -0.556,-0.584 -0.74,0.362 -1.454,0.766 -2.206,1.105 -0.002,0.187 -0.083,0.372 -0.014,0.552 m 4.742,-5.734 c 1.393,-0.789 2.765,-1.612 4.114,-2.468 l -10.49,-15.698 c -0.555,0.352 -1.153,0.636 -1.72,0.969 l 0.784,1.668 -1.624,0.765 6.188,13.143 1.621,-0.763 z m 9.183,-5.958 -11.318,-15.161 c -0.724,0.55 -1.435,1.117 -2.185,1.635 l 10.478,15.681 c 1.026,-0.697 2.035,-1.413 3.025,-2.155 m 6.461,-5.409 -10.548,-4.145 6.013,8.055 c 1.563,-1.247 3.072,-2.552 4.535,-3.91 m 3.032,-2.931 -6.641,-15.345 -2.434,-1.299 6.695,15.318 -15.969,-6.277 1.998,2.678 15.315,6.018 c 0.356,-0.354 0.686,-0.732 1.036,-1.093 m 6.888,-8.127 -10.068,-5.371 4.989,11.533 c 1.788,-1.972 3.493,-4.017 5.079,-6.162 m 3.559,-5.251 -17.452,-8.088 c -0.519,0.781 -1.091,1.522 -1.644,2.277 l 16.975,9.059 c 0.736,-1.062 1.437,-2.149 2.121,-3.248 m 2.059,-3.533 -2.524,-1.175 0.767,-1.651 -13.184,-6.11 -0.765,1.652 -1.746,-0.814 c -0.271,0.475 -0.499,0.977 -0.783,1.443 l 17.459,8.092 c 0.273,-0.47 0.51,-0.963 0.776,-1.437 m -15.238,-13.408 -0.516,1.106 15.735,7.297 0.515,-1.106 z m -5.332,22.094 -3.283,-7.506 c -0.81,0.951 -1.652,1.872 -2.519,2.771 z m -7.187,-3.337 c -0.634,0.616 -1.301,1.196 -1.961,1.784 l 7.992,3.14 z M -84.701,75.72 -78.3,86.807 -71.899,75.72 Z m -40.946,-14.124 7.506,-2.949 c -0.762,-0.676 -1.533,-1.341 -2.26,-2.054 z m 3.895,-6.408 c -0.741,-0.775 -1.465,-1.566 -2.164,-2.38 l -3.331,7.619 z m -5.647,-88.844 3.623,8.287 c 0.75,-0.867 1.514,-1.721 2.312,-2.543 z m 7.316,4.367 c 0.746,-0.723 1.522,-1.413 2.306,-2.096 l -7.528,-2.958 z m 19.583,-12.607 c 0.997,-0.391 1.982,-0.804 3.002,-1.147 -0.76,-0.299 -1.474,-0.706 -2.149,-1.163 l 0.731,1.569 z m 29.19,-5.027 -6.401,-11.086 -6.401,11.086 z m 13.776,3.088 c -0.533,0.31 -1.056,0.641 -1.632,0.857 0.923,0.315 1.816,0.691 2.722,1.041 l -1.621,-0.757 z m 2.123,-0.313 1.631,-3.491 c -0.615,1.196 -1.513,2.216 -2.585,3.045 z m 14.973,11.541 -0.034,-0.085 -0.029,0.039 c 0.021,0.016 0.042,0.03 0.063,0.046 M -78.3,-44.196 c -32.272,0 -58.433,26.162 -58.433,58.433 0,32.272 26.161,58.433 58.433,58.433 32.272,0 58.433,-26.161 58.433,-58.433 0,-32.271 -26.161,-58.433 -58.433,-58.433 m 47.376,9.708 -8.068,3.17 c 0.924,0.807 1.85,1.612 2.722,2.475 z m -4.003,7.073 c 0.691,0.728 1.37,1.464 2.024,2.226 l 3.544,-8.106 z m 27.795,68.412 2.561,1.191 c 1.618,-4.131 2.99,-8.384 3.928,-12.808 l -4.744,-1.603 c 0.213,0.467 0.374,0.952 0.469,1.444 0.459,2.403 -0.102,4.695 -1.562,6.459 -1.53,1.846 -3.9,2.907 -6.509,2.907 -4.029,0 -7.064,-2.902 -8.344,-6.396 -0.208,0.644 -0.48,1.257 -0.708,1.892 l 1.727,0.804 -0.756,1.628 13.182,6.111 z m 2.433,8.546 c 0.72,0.392 1.621,0.139 2.021,-0.577 0.397,-0.72 0.139,-1.631 -0.576,-2.027 -0.173,-0.094 -0.358,-0.037 -0.542,-0.06 -0.362,0.794 -0.775,1.559 -1.162,2.339 0.1,0.102 0.128,0.253 0.259,0.325 m 5.457,-29.09 -7.749,3.964 6.917,2.339 C 0.292,24.683 0.559,22.578 0.758,20.453 M -11.629,30.77 c -0.604,0.92 -1.655,1.342 -2.681,1.231 0.417,0.313 0.909,0.532 1.467,0.532 0.749,0 1.489,-0.326 1.981,-0.877 0.243,-0.271 0.518,-0.708 0.518,-1.277 0,-0.065 -0.004,-0.129 -0.009,-0.198 -0.119,-1.071 -0.485,-1.735 -1.105,-2.113 0.382,0.854 0.382,1.861 -0.171,2.702 M -16.513,7.206 v 12.802 l 11.087,-6.402 z m 4.559,-8.758 c 0.282,-0.084 0.552,-0.179 0.747,-0.343 0.464,-0.385 0.749,-1.051 0.854,-1.984 0.037,-0.676 -0.239,-1.172 -0.509,-1.475 -0.492,-0.551 -1.232,-0.877 -1.981,-0.877 -0.467,0 -0.881,0.165 -1.255,0.39 0.084,-0.009 0.159,-0.05 0.244,-0.05 1.435,0 2.597,1.163 2.597,2.597 0,0.677 -0.273,1.28 -0.697,1.742 M 5.141,13.428 -11.461,2.169 c -0.081,-0.035 -0.174,-0.02 -0.254,-0.062 l 0.028,-0.053 -3.165,-1.632 c -1.443,-0.987 -2.301,-2.472 -2.301,-3.974 0,-2.664 2.168,-4.832 4.837,-4.832 1.405,0 2.797,0.62 3.73,1.658 0.835,0.937 1.234,2.114 1.093,3.303 -0.164,1.498 -0.713,2.636 -1.596,3.421 0.033,-0.015 0.064,-0.01 0.098,-0.026 1.085,-0.524 2.049,-1.815 2.292,-3.065 0.308,-1.694 -0.059,-3.293 -1.066,-4.514 -1.079,-1.305 -2.792,-2.054 -4.699,-2.054 -3.982,0 -6.66,3.982 -6.66,7.704 0,2.466 1.801,4.584 3.357,5.663 l 15.622,9.722 -15.493,9.557 c -1.685,1.162 -3.486,3.28 -3.486,5.742 0,3.721 2.678,7.708 6.66,7.708 1.907,0 3.615,-0.749 4.695,-2.054 1.005,-1.217 1.392,-2.806 1.07,-4.52 -0.243,-1.249 -1.207,-2.54 -2.296,-3.064 -0.068,-0.031 -0.127,-0.025 -0.193,-0.05 0.893,0.776 1.529,1.855 1.695,3.376 0.138,1.176 -0.258,2.361 -1.093,3.303 -0.933,1.038 -2.325,1.658 -3.73,1.658 -2.669,0 -4.837,-2.168 -4.837,-4.832 0,-1.502 0.858,-2.986 2.434,-4.052 z m 1.488,0.031 -3.311,5.685 c -0.657,8.977 -2.821,17.523 -6.151,25.461 0.254,0.079 0.52,0.063 0.762,0.198 1.893,1.049 2.58,3.448 1.531,5.346 -1.05,1.893 -3.453,2.585 -5.342,1.531 -0.084,-0.046 -0.132,-0.127 -0.21,-0.179 -3.388,6.34 -7.554,12.205 -12.421,17.424 l 2.448,5.658 -5.769,-2.266 c -5.487,5.246 -11.727,9.686 -18.491,13.259 0.2,0.275 0.419,0.537 0.546,0.864 0.377,0.978 0.352,2.046 -0.072,3.005 -0.424,0.959 -1.202,1.698 -2.179,2.075 -0.983,0.376 -2.061,0.348 -3.005,-0.072 -0.964,-0.425 -1.703,-1.197 -2.079,-2.179 -0.06,-0.154 -0.044,-0.317 -0.083,-0.474 -7.822,3.241 -16.217,5.366 -25.035,6.029 l -6.068,3.072 -5.952,-3.042 c -8.981,-0.636 -17.531,-2.784 -25.482,-6.089 -0.042,0.155 -0.029,0.318 -0.09,0.47 -0.391,0.968 -1.14,1.731 -2.108,2.141 -0.964,0.411 -2.041,0.42 -3.014,0.024 -2.008,-0.815 -2.976,-3.109 -2.166,-5.112 0.115,-0.287 0.32,-0.51 0.493,-0.757 -6.697,-3.55 -12.877,-7.953 -18.321,-13.146 l -5.595,2.198 2.37,-5.479 c -5.109,-5.446 -9.437,-11.612 -12.924,-18.283 -0.168,0.122 -0.298,0.287 -0.487,0.382 -1.923,0.992 -4.302,0.21 -5.285,-1.726 -0.477,-0.94 -0.558,-2.003 -0.234,-3 0.33,-1.002 1.026,-1.813 1.961,-2.285 0.281,-0.144 0.582,-0.14 0.876,-0.21 -3.192,-7.787 -5.278,-16.14 -5.912,-24.91 l -3.094,-4.989 3.099,-6.687 c 0.62,-8.934 2.731,-17.444 5.997,-25.361 -0.106,-0.03 -0.219,-0.016 -0.322,-0.056 -2.023,-0.783 -3.029,-3.062 -2.252,-5.08 0.382,-0.982 1.117,-1.755 2.08,-2.184 0.51,-0.225 1.049,-0.339 1.588,-0.339 0.477,0 0.954,0.091 1.412,0.268 0.274,0.104 0.485,0.297 0.724,0.456 3.396,-6.443 7.588,-12.403 12.508,-17.699 l -2.105,-4.865 4.914,1.931 c 5.564,-5.429 11.924,-10.019 18.839,-13.701 h -0.001 c -0.51,-0.916 -0.634,-1.98 -0.348,-2.991 0.286,-1.006 0.949,-1.845 1.865,-2.361 0.591,-0.329 1.245,-0.496 1.908,-0.496 0.362,0 0.725,0.048 1.083,0.152 1.011,0.287 1.845,0.95 2.36,1.866 0.091,0.162 0.102,0.346 0.168,0.516 8.128,-3.378 16.88,-5.549 26.076,-6.134 l 5.62,-2.158 5.193,2.169 c 9.032,0.608 17.628,2.756 25.624,6.067 0.065,-0.171 0.077,-0.356 0.167,-0.518 0.515,-0.915 1.35,-1.578 2.361,-1.864 0.357,-0.106 0.721,-0.153 1.083,-0.153 0.663,0 1.316,0.166 1.907,0.496 0.916,0.515 1.579,1.355 1.865,2.361 0.286,1.008 0.162,2.068 -0.345,2.982 6.992,3.71 13.422,8.346 19.037,13.836 l 5.094,-2 -2.183,5.044 c 4.879,5.283 9.036,11.223 12.403,17.639 0.159,-0.089 0.285,-0.223 0.458,-0.289 0.458,-0.177 0.941,-0.268 1.417,-0.268 0.539,0 1.083,0.114 1.588,0.344 0.959,0.425 1.698,1.197 2.075,2.18 0.377,0.977 0.353,2.045 -0.071,3.004 -0.425,0.958 -1.197,1.698 -2.18,2.075 -0.009,0.004 -0.018,0.002 -0.028,0.005 3.186,7.793 5.259,16.158 5.889,24.935 z" /></g><path
           id="path3867"
           style="fill:#d3a317;fill-opacity:1;fill-rule:nonzero;stroke:none"
           d="m 28.087,124.236 h -1.003 v -1.008 h 1.003 z m 1.929,0 h -1.007 v -1.008 h 1.007 z m 1.925,0 h -1.004 v -1.008 h 1.004 z m 1.927,0 h -1.006 v -1.008 h 1.006 z m 4.883,0 h -1.006 v -1.008 h 1.006 z m 1.926,0 h -1.004 v -1.008 h 1.004 z m 1.928,0 h -1.008 v -1.008 h 1.008 z m -19.89,1.138 c -0.191,-0.639 0.063,-0.765 0.587,-0.851 0.046,-0.851 0.438,-0.818 1.054,-0.79 -0.072,0.06 -1.641,1.641 -1.641,1.641 m 6.151,0.837 h -1.003 v -1.006 h 1.003 z m 1.928,0 h -1.006 v -1.006 h 1.006 z m 1.925,0 h -1.004 v -1.006 h 1.004 z m 1.928,0 h -1.006 v -1.006 h 1.006 z m 3.361,0 h -1.003 v -1.006 h 1.003 z m 1.928,0 H 38.93 v -1.006 h 1.006 z m 1.925,0 h -1.004 v -1.006 h 1.004 z m 1.928,0 h -1.007 v -1.006 h 1.007 z m -4.99,1.78 h -0.536 l 0.198,-0.514 h 0.548 z m 0.894,0 h -0.589 l 0.21,-0.514 h 0.605 z m 0.848,0 h -0.542 l 0.224,-0.514 h 0.542 z m -12.735,0.086 h -0.535 l 0.257,-0.6 h 0.533 z m 0.984,0 H 28.1 l 0.263,-0.6 h 0.717 z m -1.949,0.3 -1.078,-0.9 h 1.445 z m 11.633,0.408 h -0.513 l 0.228,-0.597 h 0.53 z m 0.872,0 h -0.568 l 0.246,-0.597 h 0.583 z m 0.847,0 h -0.542 l 0.261,-0.597 h 0.542 z m 8.837,0.045 h -3.435 v -0.779 h 3.198 z m -22.038,0.037 h -0.06 l 0.015,-0.037 z m 0.476,0 H 27.43 l -0.367,-0.303 0.166,-0.389 v 0.01 h 0.529 z m 0.937,0 h -0.652 l 0.299,-0.682 h 0.684 z m 16.376,0.564 c -0.742,-0.061 -1.509,-0.214 -2.313,-0.519 l 0.406,-0.861 h 1.907 z m -16.658,0.017 -0.456,-0.382 0.039,-0.091 h 0.648 z m -5.366,0.101 -1.436,-1.582 1.48,-1.506 h 0.847 v 1.016 h 0.596 c -0.53,0.518 -1.063,1.307 -1.487,2.072 m 15.39,0.029 h -0.491 l 0.228,-0.597 h 0.509 z m 0.856,0 h -0.55 l 0.245,-0.597 h 0.566 z m 0.848,0 h -0.542 l 0.26,-0.597 h 0.542 z m -12.717,0.078 h -0.536 l 0.291,-0.681 h 0.23 l 0.225,0.189 z m 0.793,0 h -0.521 l 0.142,-0.32 z m 1.268,0.687 -0.835,-0.699 1.117,-2.167 h 1.086 z m 8.627,0.029 h -0.468 l 0.228,-0.598 h 0.485 z m 0.834,0 h -0.53 l 0.246,-0.598 h 0.545 z m 0.847,0 h -0.542 l 0.261,-0.598 h 0.542 z m -12.707,0.074 H 26.26 l 0.29,-0.681 h 0.536 z m 0.844,0 h -0.58 l 0.298,-0.681 h 0.611 z m 21.174,0.235 -0.571,-0.57 -0.569,0.57 -0.201,-0.202 0.568,-0.569 -0.568,-0.568 0.201,-0.201 0.569,0.568 0.571,-0.568 0.202,0.201 -0.568,0.568 0.568,0.569 z m -11.318,0.485 h -0.448 l 0.229,-0.599 h 0.465 z m 0.817,0 h -0.512 l 0.246,-0.599 h 0.527 z m 0.848,0 h -0.542 l 0.26,-0.599 h 0.542 z m -12.703,0.07 h -0.535 l 0.29,-0.682 h 0.536 z m 0.797,0 h -0.542 l 0.3,-0.682 h 0.574 z m 3.4,0.324 -1.238,-1.034 1.481,-3.049 h 1.673 c -0.631,1.4 -1.278,2.719 -1.916,4.083 m -5.964,0.121 -1.756,-1.937 c 0.495,-0.868 1.088,-1.579 1.625,-2.267 h 0.131 z m 2.345,0.009 c -0.157,-0.022 -0.329,-0.024 -0.515,-0.006 l 0.147,-0.34 h 0.537 z m -1.557,0.081 c -0.021,0 -0.041,-0.003 -0.06,-0.003 v -4.223 l 1.312,1.103 -1.261,3.101 z m -3.575,0.005 c -0.297,-0.275 -1.912,-1.898 -2.189,-2.176 l 1.392,-1.415 1.49,1.661 c -0.463,0.885 -0.756,1.687 -0.693,1.93 m 4.128,0 c -0.111,0 -0.226,-0.002 -0.338,-0.003 l 0.184,-0.429 h 0.537 l -0.164,0.379 c -0.071,0.014 -0.144,0.033 -0.219,0.052 z m 11.138,0.184 h -0.423 l 0.227,-0.599 h 0.442 z m 0.799,0 h -0.494 l 0.246,-0.599 h 0.509 z m 0.847,0 h -0.542 l 0.261,-0.599 h 0.542 z m -2.437,0.168 c -0.039,-0.004 -0.078,-0.01 -0.118,-0.015 v -4.636 h 1.895 z m -12.897,0.03 c -0.484,-0.134 -0.959,-0.229 -1.409,-0.24 0.168,-0.712 0.414,-1.326 0.702,-1.877 l 1.593,1.779 c -0.326,0.052 -0.628,0.15 -0.886,0.338 m 13.563,0.107 c -0.118,-0.034 -0.245,-0.067 -0.378,-0.092 l 0.006,-0.018 h 0.417 z m -8.806,0.089 c -0.268,-0.276 -0.574,-0.5 -0.96,-0.61 l 0.948,-1.84 0.841,0.711 z m 9.467,0.21 c -0.087,-0.073 -0.227,-0.145 -0.393,-0.21 l 0.082,-0.199 h 0.489 z m -5.778,0.059 -1.03,-0.858 c 0.68,-1.443 1.375,-2.827 2.032,-4.288 h 2.303 v 0.606 c -0.848,0.72 -1.643,1.592 -2.224,4.33 -0.362,0.012 -0.722,0.098 -1.081,0.21 m 6.056,0 0.205,-0.468 h 0.541 l -0.166,0.382 c -0.193,0.018 -0.387,0.05 -0.58,0.086 m -3.66,0.134 c -0.349,-0.212 -0.694,-0.312 -1.036,-0.339 0.332,-1.425 0.996,-3.319 1.945,-3.938 v 3.675 c -0.4,0.087 -0.738,0.273 -0.909,0.602 m 5.719,0.141 c -0.403,-0.276 -0.79,-0.366 -1.167,-0.373 l 2.312,-5.322 h 0.229 c 0.033,0.859 0.596,0.848 0.98,0.848 h 0.145 c -0.02,0.041 -0.254,0.542 -0.353,0.749 -0.259,-0.109 -0.524,-0.233 -0.793,-0.376 0.135,0.369 0.297,0.713 0.482,1.033 -0.66,1.4 -1.439,3.048 -1.619,3.43 -0.069,0 -0.141,0.003 -0.216,0.011 m -9.693,0.054 c 0.138,-0.307 0.277,-0.609 0.417,-0.91 l 0.768,0.649 c -0.406,-0.045 -0.803,0.026 -1.185,0.261 m 18.225,0.062 c -0.651,-0.483 -1.293,-1.078 -1.837,-2.085 h 1.837 z m -20.541,0.341 c 0.07,-0.126 0.145,-0.255 0.232,-0.382 h 0.577 L 28.848,132.6 H 28.46 c -0.01,-0.013 -0.019,-0.025 -0.029,-0.036 l 0.856,-1.765 1.237,1.042 c -0.174,0.377 -0.348,0.757 -0.521,1.143 -0.616,-0.026 -1.226,-0.027 -1.735,0.324 -0.075,0.021 -0.153,0.036 -0.234,0.047 m 17.561,0.005 v -0.713 c 0.34,0.167 0.688,0.322 1.046,0.471 -0.268,0.162 -0.611,0.221 -1.046,0.242 m -0.814,0.018 c -0.056,0 -0.108,-10e-4 -0.166,0 -1.584,0.016 -2.317,-0.835 -2.44,-0.994 l 1.238,-1.123 c 0.419,0.352 0.878,0.666 1.368,0.951 z m -3.353,0.021 c -0.255,-0.199 -0.511,-0.394 -0.85,-0.473 l 1.49,-3.164 c 0.322,0.489 0.701,0.923 1.129,1.309 l -1.288,1.242 v 0.005 c -0.07,0.091 -0.287,0.531 -0.481,1.081 m -15.934,0.225 v -0.651 h 1.172 1.292 c 0.154,0.04 -1.012,0.924 -1.292,0 l -0.409,0.011 c 0.02,0.289 -0.32,0.536 -0.763,0.64 m -7.6,0.024 -0.571,-0.569 -0.569,0.569 -0.201,-0.202 0.568,-0.568 -0.568,-0.568 0.201,-0.203 0.569,0.569 0.571,-0.569 0.202,0.203 -0.569,0.568 0.569,0.568 z m 15.029,1.175 c -0.386,0.012 -0.752,-0.183 -0.912,-0.678 h 2.052 c -0.25,0.397 -0.709,0.666 -1.14,0.678 m -12.183,0.169 h -1.658 c -0.04,-0.08 -0.105,-0.145 -0.184,-0.189 v -4.374 l 0.604,-0.614 0.03,0.021 2.105,2.103 c -0.496,0.061 -0.954,0.254 -1.35,0.671 h -0.181 v 0.363 h 4.789 v 0.698 c -0.446,-0.035 -0.889,-0.232 -1.125,-0.675 l -0.312,-0.017 c -0.065,0.291 -0.975,0.87 -1.581,0.017 h -0.213 c -0.636,0.666 -0.887,1.331 -0.924,1.996 m 14.493,0.032 c -0.405,-0.121 -0.713,-0.382 -0.815,-0.832 l 0.004,-0.047 h 0.811 z m 1.028,0.054 v -0.933 h 2.002 l -0.039,0.024 c -0.404,0.452 -1.201,0.81 -1.963,0.909 m -8.053,2.473 c -0.474,-0.863 -0.917,-2.06 -0.508,-3.406 h 1.797 c -0.446,1.056 -0.877,2.177 -1.289,3.406 m -4.82,0.424 h -1.446 c 0.307,-0.952 1.323,-0.269 1.446,0 m 1.507,0 h -1.22 c -0.008,-0.366 0.577,-0.709 1.22,-0.721 z m 1.347,0 h -0.748 v -0.622 c 0.29,0.105 0.557,0.3 0.748,0.622 m 1.644,0 h -0.065 -1.093 c 0.064,-0.598 0.835,-0.252 1.104,-0.045 z m 16.948,0.166 H 42.71 c 0.039,-0.103 0.199,-0.407 0.708,-0.443 0.579,-0.04 1.306,0.377 1.416,0.443 m 2.938,0 H 45.55 c 0.084,-0.14 0.383,-0.553 1.026,-0.575 0.601,-0.021 1.196,0.575 1.196,0.575 m 0.802,0 h -0.035 c -0.124,-0.126 -1.406,-1.475 -1.377,-2.98 0.014,-0.723 0.46,-1.295 0.713,-1.563 0.232,0.084 0.465,0.164 0.699,0.245 z m -3.577,2.034 -1.904,-1.603 h 1.904 z m 0.382,0.038 v -1.641 h 1.951 z m -20.484,0.14 -2.283,-1.997 h 2.283 z m 0.599,0.062 v -2.059 h 2.217 z m 4.998,0.956 h -4.998 v -0.427 l 2.691,-2.588 h 0.06 z m 1.114,0 H 30.933 L 28.7,138.356 h 0.142 v -0.381 H 28.46 c 0.414,-1.396 0.878,-2.652 1.372,-3.83 h 1.818 c -0.477,0.66 -1.392,2.148 -1.347,3.83 0.048,1.822 1.017,3.066 1.303,3.396 m 2.17,0 h -1.751 c 0.08,-0.193 0.29,-0.479 0.863,-0.477 0.609,0.002 0.803,0.271 0.888,0.477 m 1.671,0 h -1.333 c 0.076,-0.179 0.353,-0.553 1.333,-0.63 z m 2.745,0 h -2.145 v -0.642 c 1.557,0.052 2.012,0.42 2.145,0.642 m 1.916,0 h -1.223 c -1.024,-1.551 -1.394,-5.214 0.512,-7.226 h 1.812 c -0.084,0.354 -0.138,0.713 -0.124,1.028 0.014,0.298 0.065,0.61 0.137,0.918 -0.208,0.284 -1.092,1.319 -1.094,2.863 l -0.003,2.382 z m 2.428,0 h -2.111 l 0.002,-2.404 c 10e-4,-1.044 0.577,-2.019 0.913,-2.414 0.218,0.742 0.51,1.383 0.607,1.588 h -0.756 v 0.431 h 1.306 l 2.42,2.035 h -2.958 l 0.29,0.382 h 0.139 v 0.187 z m 2.067,1.108 -0.572,-0.569 -0.568,0.569 -0.201,-0.202 0.569,-0.569 -0.569,-0.568 0.201,-0.201 0.568,0.568 0.572,-0.568 0.202,0.201 -0.569,0.568 0.569,0.569 z m -20.341,0.837 -0.572,-0.568 -0.568,0.568 -0.203,-0.2 0.569,-0.569 -0.569,-0.568 0.203,-0.203 0.568,0.569 0.572,-0.569 0.2,0.203 -0.568,0.568 0.568,0.569 z m 11.185,0.872 -2.399,-2.482 h 2.399 z m 0.6,0.015 v -2.497 h 2.145 z m -0.6,1.977 h -0.954 l -3.314,-4.474 h 1.324 l 2.944,2.94 v 0.151 c -0.266,0.06 -0.453,0.208 -0.453,0.38 0,0.171 0.187,0.319 0.453,0.379 z m 0.624,1.94 -0.024,-0.021 v -2.564 c 0.227,-0.068 0.382,-0.203 0.382,-0.358 0,-0.156 -0.155,-0.29 -0.382,-0.359 v -0.145 l 2.672,-2.967 h 1.374 z m -1.196,0.116 -0.571,-0.569 -0.569,0.569 -0.202,-0.202 0.569,-0.569 -0.569,-0.568 0.202,-0.201 0.569,0.568 0.571,-0.568 0.201,0.201 -0.569,0.568 0.569,0.569 z m 0.957,2.061 c 0.277,0 0.5,-0.171 0.5,-0.382 0,-0.153 -0.116,-0.282 -0.285,-0.344 v -0.853 c 0.391,-0.606 4.42,-6.855 4.531,-7.012 h 2.174 l -0.364,0.483 v 0.213 h -0.16 l -0.414,0.548 h 3.183 v 0.985 c -0.209,0.062 -0.358,0.218 -0.358,0.403 0,0.238 0.246,0.433 0.55,0.433 0.305,0 0.548,-0.195 0.548,-0.433 0,-0.185 -0.149,-0.341 -0.358,-0.403 v -3.222 l 2.547,-2.141 h 1.498 v -0.431 h -0.58 v -4.203 c 0.249,0.085 0.496,0.171 0.746,0.254 v -0.467 c -0.245,-0.174 -0.494,-0.338 -0.746,-0.515 v -2.281 h 0.891 l 0.252,0.734 c -0.137,0.068 -0.228,0.183 -0.228,0.318 0,0.208 0.217,0.375 0.485,0.375 0.269,0 0.489,-0.167 0.489,-0.375 0,-0.174 -0.156,-0.319 -0.364,-0.362 l -1.691,-5.943 c -1.061,-0.923 -3.274,-3.289 -1.211,-4.256 l -0.501,-1.762 H 36.261 v -2.343 c 0.681,-0.201 1.173,-0.78 1.173,-1.465 0,-0.852 -0.762,-1.546 -1.7,-1.546 -0.939,0 -1.697,0.694 -1.697,1.546 0,0.685 0.491,1.264 1.172,1.465 v 2.343 h -9.802 c -0.016,0.4 -0.971,1.859 -1.528,2.461 -1.133,1.226 -2.502,2.764 -2.668,3.257 -0.195,0.579 0.044,1.422 0.044,1.422 l -3.091,3.217 0.352,0.349 v 1.411 h -3.219 l 0.397,0.525 H 15.8 v 0.139 l 0.311,0.413 -0.311,0.431 v 0.19 h -0.136 l -0.343,0.479 h 3.195 v 0.819 c -0.174,0.06 -0.299,0.219 -0.299,0.408 0,0.241 0.205,0.437 0.456,0.437 0.182,0 0.336,-0.102 0.409,-0.251 h 1.658 c 0.049,0.869 0.406,1.741 0.699,2.61 h -0.758 v 0.381 h 1.386 l -0.021,0.024 2.849,2.535 v 0.444 h -3.651 l 0.402,0.527 h 0.137 v 0.178 l 0.358,0.468 -0.358,0.471 v 0.174 h -0.134 l -0.429,0.563 h 3.687 v 0.856 c -0.195,0.044 -0.335,0.169 -0.335,0.317 0,0.185 0.219,0.335 0.489,0.335 0.271,0 0.491,-0.15 0.491,-0.335 0,-0.139 -0.123,-0.258 -0.299,-0.308 v -2.899 h 5.491 l 3.269,4.379 0.06,0.095 H 31.81 l 0.388,0.504 h 0.258 v 0.335 l 0.335,0.432 -0.335,0.432 v 0.285 h -0.22 l -0.426,0.55 h 3.816 l 0.037,0.06 v 0.779 c -0.195,0.053 -0.335,0.192 -0.335,0.358 0,0.211 0.226,0.382 0.504,0.382" /><path
           id="path3869"
           style="fill:#d3a317;fill-opacity:1;fill-rule:nonzero;stroke:none"
           d="m 245.248,136.979 h -1.003 v -1.008 h 1.003 z m 1.929,0 h -1.007 v -1.008 h 1.007 z m 1.925,0 h -1.005 v -1.008 h 1.005 z m 1.927,0 h -1.007 v -1.008 h 1.007 z m 4.883,0 h -1.006 v -1.008 h 1.006 z m 1.926,0 h -1.005 v -1.008 h 1.005 z m 1.928,0 h -1.008 v -1.008 h 1.008 z m -19.89,1.136 c -0.191,-0.637 0.063,-0.763 0.586,-0.849 0.047,-0.853 0.439,-0.82 1.055,-0.791 -0.072,0.059 -1.641,1.64 -1.641,1.64 m 6.151,0.838 h -1.004 v -1.007 h 1.004 z m 1.927,0 h -1.006 v -1.007 h 1.006 z m 1.926,0 h -1.004 v -1.007 h 1.004 z m 1.928,0 h -1.007 v -1.007 h 1.007 z m 3.361,0 h -1.004 v -1.007 h 1.004 z m 1.928,0 h -1.007 v -1.007 h 1.007 z m 1.925,0 h -1.005 v -1.007 h 1.005 z m 1.927,0 h -1.007 v -1.007 h 1.007 z m -4.99,1.779 h -0.535 l 0.198,-0.514 h 0.548 z m 0.895,0 h -0.589 l 0.21,-0.514 h 0.604 z m 0.847,0 h -0.542 l 0.225,-0.514 h 0.542 z m -12.734,0.087 h -0.536 l 0.257,-0.601 h 0.534 z m 0.983,0 h -0.69 l 0.263,-0.601 h 0.717 z m -1.948,0.299 -1.079,-0.9 h 1.445 z m 11.632,0.409 h -0.513 l 0.229,-0.598 h 0.53 z m 0.873,0 h -0.569 l 0.247,-0.598 h 0.583 z m 0.847,0 h -0.542 l 0.26,-0.598 h 0.542 z m 8.837,0.044 h -3.435 v -0.778 h 3.198 z m -22.039,0.038 h -0.059 l 0.014,-0.038 z m 0.477,0 h -0.039 l -0.366,-0.304 0.166,-0.388 v 0.009 h 0.529 z m 0.936,0 h -0.652 l 0.3,-0.683 h 0.684 z m 16.376,0.563 c -0.742,-0.061 -1.508,-0.213 -2.312,-0.518 l 0.405,-0.861 h 1.907 z m -16.657,0.018 -0.457,-0.382 0.039,-0.092 h 0.649 z m -5.367,0.101 -1.436,-1.582 1.481,-1.507 h 0.848 v 1.016 h 0.594 c -0.53,0.518 -1.062,1.308 -1.487,2.073 m 15.392,0.029 h -0.493 l 0.229,-0.598 h 0.509 z m 0.855,0 h -0.551 l 0.245,-0.598 h 0.567 z m 0.847,0 h -0.542 l 0.26,-0.598 h 0.542 z m -12.716,0.078 h -0.537 l 0.291,-0.682 h 0.23 l 0.226,0.19 z m 0.793,0 h -0.522 l 0.143,-0.32 z m 1.267,0.687 -0.834,-0.7 1.116,-2.167 h 1.087 z m 8.627,0.029 h -0.468 l 0.228,-0.598 h 0.486 z m 0.835,0 h -0.53 l 0.246,-0.598 h 0.545 z m 0.847,0 h -0.542 l 0.261,-0.598 h 0.542 z m -12.707,0.074 h -0.536 l 0.29,-0.681 h 0.536 z m 0.844,0 h -0.58 l 0.299,-0.681 h 0.61 z m 21.174,0.234 -0.572,-0.568 -0.568,0.568 -0.202,-0.202 0.568,-0.568 -0.568,-0.569 0.202,-0.201 0.568,0.569 0.572,-0.569 0.202,0.201 -0.569,0.569 0.569,0.568 z m -11.319,0.485 h -0.447 l 0.228,-0.597 h 0.465 z m 0.818,0 h -0.513 l 0.247,-0.597 h 0.526 z m 0.847,0 h -0.542 l 0.261,-0.597 h 0.542 z m -12.702,0.072 h -0.536 l 0.29,-0.684 h 0.537 z m 0.797,0 h -0.542 l 0.299,-0.684 h 0.574 z m 3.4,0.323 -1.239,-1.034 1.482,-3.05 h 1.672 c -0.63,1.401 -1.277,2.72 -1.915,4.084 m -5.964,0.121 -1.756,-1.937 c 0.494,-0.868 1.088,-1.579 1.625,-2.268 h 0.131 z m 2.345,0.009 c -0.157,-0.022 -0.33,-0.024 -0.515,-0.006 l 0.147,-0.341 h 0.536 z m -1.558,0.08 c -0.02,0 -0.039,-0.003 -0.059,-0.003 v -4.223 l 1.312,1.104 -1.261,3.101 z m -3.575,0.006 c -0.296,-0.275 -1.912,-1.898 -2.188,-2.177 l 1.393,-1.415 1.489,1.661 c -0.463,0.886 -0.756,1.688 -0.694,1.931 m 4.128,0 c -0.11,0.001 -0.225,-0.001 -0.337,-0.003 l 0.184,-0.43 h 0.536 l -0.163,0.379 c -0.072,0.015 -0.143,0.034 -0.22,0.054 m 11.139,0.184 h -0.424 l 0.228,-0.598 h 0.441 z m 0.799,0 h -0.494 l 0.246,-0.598 h 0.509 z m 0.848,0 h -0.542 l 0.259,-0.598 h 0.543 z m -2.438,0.168 c -0.039,-0.005 -0.079,-0.01 -0.119,-0.015 v -4.637 h 1.895 z m -12.896,0.029 c -0.486,-0.133 -0.96,-0.229 -1.411,-0.239 0.168,-0.712 0.415,-1.326 0.703,-1.878 l 1.592,1.78 c -0.326,0.051 -0.627,0.15 -0.884,0.337 m 13.562,0.108 c -0.118,-0.034 -0.245,-0.067 -0.379,-0.092 l 0.007,-0.018 h 0.417 z m -8.807,0.089 c -0.268,-0.276 -0.574,-0.501 -0.96,-0.611 l 0.948,-1.839 0.842,0.711 z m 9.467,0.209 c -0.087,-0.072 -0.226,-0.144 -0.392,-0.209 l 0.082,-0.199 h 0.489 z m -5.777,0.06 -1.03,-0.859 c 0.679,-1.442 1.375,-2.827 2.032,-4.288 h 2.304 v 0.607 c -0.849,0.72 -1.644,1.592 -2.225,4.329 -0.362,0.013 -0.722,0.098 -1.081,0.211 m 6.057,0 0.204,-0.468 h 0.541 l -0.165,0.382 c -0.194,0.017 -0.388,0.05 -0.58,0.086 m -3.662,0.134 c -0.348,-0.212 -0.693,-0.312 -1.036,-0.339 0.332,-1.425 0.996,-3.32 1.947,-3.938 v 3.675 c -0.402,0.087 -0.739,0.272 -0.911,0.602 m 5.719,0.142 c -0.402,-0.277 -0.789,-0.367 -1.166,-0.374 l 2.313,-5.322 h 0.227 c 0.033,0.859 0.597,0.848 0.981,0.848 h 0.144 c -0.019,0.04 -0.254,0.542 -0.352,0.749 -0.26,-0.109 -0.524,-0.233 -0.793,-0.376 0.134,0.368 0.297,0.712 0.482,1.033 -0.66,1.4 -1.439,3.048 -1.619,3.429 -0.068,0 -0.142,0.003 -0.217,0.013 m -9.692,0.053 c 0.137,-0.307 0.276,-0.609 0.417,-0.91 l 0.767,0.649 c -0.405,-0.045 -0.802,0.026 -1.184,0.261 m 18.224,0.061 c -0.65,-0.482 -1.293,-1.077 -1.837,-2.085 h 1.837 z m -20.541,0.341 c 0.07,-0.126 0.146,-0.255 0.232,-0.382 h 0.577 l 0.006,-0.373 h -0.388 c -0.011,-0.012 -0.019,-0.024 -0.029,-0.036 l 0.855,-1.764 1.239,1.042 c -0.175,0.376 -0.349,0.756 -0.522,1.143 -0.617,-0.027 -1.227,-0.028 -1.735,0.323 -0.075,0.022 -0.154,0.036 -0.235,0.047 m 17.562,0.006 v -0.713 c 0.339,0.166 0.687,0.321 1.045,0.47 -0.267,0.164 -0.611,0.221 -1.045,0.243 m -0.815,0.018 c -0.055,0 -0.107,-0.001 -0.165,0 -1.585,0.015 -2.317,-0.836 -2.44,-0.995 l 1.237,-1.123 c 0.419,0.353 0.879,0.667 1.368,0.952 z m -3.352,0.021 c -0.255,-0.199 -0.512,-0.394 -0.85,-0.474 l 1.49,-3.163 c 0.322,0.489 0.701,0.922 1.128,1.309 l -1.288,1.241 v 0.006 c -0.07,0.09 -0.287,0.53 -0.48,1.081 m -15.935,0.225 v -0.652 h 1.172 1.292 c 0.154,0.04 -1.012,0.925 -1.292,0 l -0.408,0.012 c 0.019,0.288 -0.32,0.535 -0.764,0.64 m -7.599,0.023 -0.572,-0.568 -0.568,0.568 -0.202,-0.2 0.569,-0.569 -0.569,-0.569 0.202,-0.202 0.568,0.569 0.572,-0.569 0.201,0.202 -0.569,0.569 0.569,0.569 z m 15.029,1.176 c -0.387,0.012 -0.752,-0.184 -0.912,-0.678 h 2.052 c -0.25,0.397 -0.71,0.665 -1.14,0.678 m -12.184,0.169 h -1.658 c -0.039,-0.08 -0.104,-0.146 -0.183,-0.19 v -4.374 l 0.604,-0.613 0.029,0.021 2.106,2.103 c -0.496,0.06 -0.954,0.255 -1.351,0.672 h -0.18 v 0.361 h 4.788 v 0.699 c -0.446,-0.035 -0.888,-0.232 -1.125,-0.675 l -0.311,-0.018 c -0.066,0.291 -0.975,0.87 -1.581,0.018 h -0.214 c -0.636,0.665 -0.886,1.331 -0.924,1.996 m 14.495,0.032 c -0.407,-0.121 -0.714,-0.383 -0.816,-0.832 l 0.004,-0.047 h 0.812 z m 1.026,0.054 v -0.933 h 2.003 l -0.039,0.024 c -0.404,0.451 -1.2,0.81 -1.964,0.909 m -8.052,2.473 c -0.474,-0.864 -0.917,-2.06 -0.509,-3.406 h 1.798 c -0.446,1.055 -0.878,2.177 -1.289,3.406 m -4.82,0.423 h -1.446 c 0.307,-0.952 1.322,-0.268 1.446,0 m 1.506,0 h -1.219 c -0.008,-0.364 0.577,-0.709 1.219,-0.72 z m 1.347,0 h -0.748 v -0.621 c 0.29,0.105 0.557,0.3 0.748,0.621 m 1.645,0 h -0.066 -1.092 c 0.064,-0.598 0.835,-0.252 1.104,-0.044 z m 16.948,0.166 h -2.124 c 0.039,-0.102 0.198,-0.405 0.708,-0.442 0.579,-0.04 1.306,0.377 1.416,0.442 m 2.938,0 h -2.222 c 0.084,-0.139 0.382,-0.552 1.025,-0.574 0.601,-0.021 1.197,0.574 1.197,0.574 m 0.802,0 h -0.036 c -0.123,-0.126 -1.405,-1.474 -1.377,-2.979 0.014,-0.723 0.46,-1.295 0.714,-1.564 0.232,0.084 0.465,0.165 0.699,0.246 z m -3.577,2.035 -1.904,-1.603 h 1.904 z m 0.382,0.038 v -1.641 h 1.951 z m -20.485,0.139 -2.283,-1.996 h 2.283 z m 0.599,0.062 v -2.058 h 2.218 z m 4.999,0.957 h -4.999 v -0.427 l 2.692,-2.588 h 0.059 z m 1.114,0 h -0.673 l -2.233,-3.015 h 0.142 v -0.382 h -0.382 c 0.413,-1.395 0.878,-2.652 1.371,-3.829 h 1.819 c -0.478,0.659 -1.392,2.148 -1.347,3.829 0.048,1.823 1.016,3.067 1.303,3.397 m 2.17,0 h -1.75 c 0.079,-0.193 0.29,-0.479 0.862,-0.477 0.609,0.002 0.804,0.271 0.888,0.477 m 1.67,0 h -1.333 c 0.077,-0.179 0.353,-0.553 1.333,-0.631 z m 2.746,0 h -2.145 v -0.643 c 1.557,0.053 2.012,0.421 2.145,0.643 m 1.916,0 h -1.224 c -1.024,-1.551 -1.394,-5.215 0.513,-7.226 h 1.812 c -0.085,0.354 -0.139,0.713 -0.124,1.028 0.013,0.297 0.066,0.61 0.136,0.918 -0.207,0.284 -1.091,1.319 -1.093,2.863 l -0.003,2.382 z m 2.427,0 h -2.111 l 0.003,-2.404 c 10e-4,-1.044 0.576,-2.019 0.913,-2.414 0.218,0.742 0.51,1.382 0.606,1.587 h -0.755 v 0.432 h 1.306 l 2.42,2.035 h -2.959 l 0.29,0.382 h 0.14 v 0.187 z m 2.068,1.107 -0.572,-0.568 -0.569,0.568 -0.2,-0.201 0.568,-0.569 -0.568,-0.569 0.2,-0.2 0.569,0.568 0.572,-0.568 0.201,0.2 -0.569,0.569 0.569,0.569 z m -20.342,0.838 -0.571,-0.568 -0.569,0.568 -0.202,-0.201 0.568,-0.568 -0.568,-0.569 0.202,-0.202 0.569,0.569 0.571,-0.569 0.201,0.202 -0.568,0.569 0.568,0.568 z m 11.185,0.871 -2.398,-2.482 h 2.398 z m 0.601,0.015 v -2.497 h 2.145 z m -0.601,1.978 h -0.953 l -3.314,-4.475 h 1.324 l 2.943,2.941 v 0.152 c -0.265,0.059 -0.453,0.207 -0.453,0.379 0,0.171 0.188,0.319 0.453,0.378 z m 0.624,1.94 -0.023,-0.021 v -2.565 c 0.227,-0.067 0.382,-0.202 0.382,-0.357 0,-0.156 -0.155,-0.291 -0.382,-0.359 v -0.145 l 2.672,-2.968 h 1.374 z m -1.195,0.116 -0.571,-0.569 -0.569,0.569 -0.202,-0.203 0.569,-0.568 -0.569,-0.569 0.202,-0.2 0.569,0.568 0.571,-0.568 0.2,0.2 -0.568,0.569 0.568,0.568 z m 0.956,2.061 c 0.278,0 0.5,-0.171 0.5,-0.382 0,-0.153 -0.115,-0.282 -0.284,-0.344 v -0.853 c 0.391,-0.606 4.42,-6.855 4.531,-7.013 h 2.174 l -0.364,0.483 v 0.214 h -0.16 l -0.414,0.547 h 3.183 v 0.986 c -0.21,0.062 -0.358,0.218 -0.358,0.403 0,0.237 0.246,0.433 0.55,0.433 0.304,0 0.547,-0.196 0.547,-0.433 0,-0.185 -0.148,-0.341 -0.357,-0.403 v -3.222 l 2.547,-2.141 h 1.498 v -0.432 h -0.581 v -4.203 c 0.25,0.086 0.497,0.172 0.747,0.255 v -0.468 c -0.245,-0.173 -0.495,-0.338 -0.747,-0.515 v -2.281 h 0.892 l 0.252,0.735 c -0.137,0.067 -0.228,0.183 -0.228,0.317 0,0.208 0.217,0.377 0.485,0.377 0.269,0 0.489,-0.169 0.489,-0.377 0,-0.174 -0.157,-0.318 -0.364,-0.361 l -1.691,-5.943 c -1.061,-0.924 -3.275,-3.29 -1.212,-4.256 l -0.5,-1.762 h -10.706 v -2.342 c 0.682,-0.202 1.174,-0.782 1.174,-1.466 0,-0.853 -0.762,-1.546 -1.7,-1.546 -0.939,0 -1.698,0.693 -1.698,1.546 0,0.684 0.492,1.264 1.173,1.466 v 2.342 h -9.803 c -0.015,0.399 -0.97,1.859 -1.527,2.461 -1.133,1.225 -2.502,2.763 -2.669,3.257 -0.194,0.579 0.045,1.422 0.045,1.422 l -3.092,3.216 0.353,0.35 v 1.412 h -3.219 l 0.396,0.524 h 0.107 v 0.139 l 0.311,0.412 -0.311,0.432 v 0.19 h -0.136 l -0.344,0.479 h 3.196 v 0.818 c -0.174,0.061 -0.299,0.22 -0.299,0.408 0,0.241 0.205,0.438 0.456,0.438 0.182,0 0.336,-0.103 0.408,-0.251 h 1.658 c 0.049,0.869 0.407,1.74 0.7,2.609 h -0.758 v 0.382 h 1.386 l -0.021,0.024 2.848,2.535 v 0.444 h -3.651 l 0.403,0.527 h 0.136 v 0.177 l 0.359,0.468 -0.359,0.472 v 0.174 h -0.133 l -0.429,0.563 h 3.686 v 0.855 c -0.194,0.045 -0.334,0.17 -0.334,0.318 0,0.185 0.218,0.334 0.488,0.334 0.271,0 0.492,-0.149 0.492,-0.334 0,-0.139 -0.123,-0.258 -0.299,-0.308 v -2.9 h 5.49 l 3.27,4.38 0.059,0.095 h -2.263 l 0.388,0.503 h 0.258 v 0.336 l 0.335,0.432 -0.335,0.432 v 0.284 h -0.22 l -0.426,0.551 h 3.817 l 0.036,0.06 v 0.778 c -0.194,0.054 -0.334,0.193 -0.334,0.359 0,0.211 0.225,0.382 0.503,0.382" /></g></g></g></svg>